<svg width="60" height="123" viewBox="0 0 60 123" fill="none" xmlns="http://www.w3.org/2000/svg">
<g clip-path="url(#clip0_1_28338)">
<g clip-path="url(#clip1_1_28338)">
<g clip-path="url(#clip2_1_28338)">
<path d="M0.03125 62.2195V91.2957H29.104V62.2195H0.03125ZM21.7208 78.3312C21.7208 84.3024 18.5596 86.7154 14.3762 86.7154C10.3966 86.7154 7.40393 84.471 7.40393 78.419V66.9683H9.94344V78.4892C9.94344 82.8131 11.8683 84.6571 14.464 84.6571C17.3126 84.6571 19.1848 82.7604 19.1848 78.4892V66.9683H21.7208V78.3312Z" fill="white"/>
<path d="M30.9097 62.2195V91.2957H59.9824V62.2195H30.9097ZM52.7396 86.4555H50.2036L44.0428 76.5995C42.7038 74.5201 41.5001 72.3566 40.439 70.1225L40.3512 70.1506C40.4987 72.6094 40.5268 74.9276 40.5268 78.1591V86.4555H38.1664V67.0386H40.9307L47.1232 76.8735C48.4207 78.8982 49.5756 81.0108 50.5795 83.196L50.6673 83.1679C50.439 80.5721 50.3828 78.2153 50.3828 75.2121V67.0632H52.7396V86.4555Z" fill="white"/>
<path d="M0 93.094V122.167H29.0762V93.094H0ZM20.418 114.608C18.5704 116.424 15.5743 117.393 11.8054 117.393C10.2801 117.417 8.75481 117.342 7.2392 117.169V98.0711C9.01234 97.8049 10.8027 97.6699 12.5957 97.6672C16.196 97.6672 18.7601 98.4751 20.4566 100.059C22.2129 101.647 23.2209 103.923 23.2209 107.06C23.2209 110.196 22.1988 112.824 20.418 114.608Z" fill="white"/>
<path d="M12.2937 115.384C11.4477 115.413 10.6007 115.373 9.76123 115.265V99.9152C10.7287 99.7302 11.7126 99.6443 12.6976 99.6588C17.9944 99.6588 20.5901 102.511 20.5585 107.144C20.5585 112.388 17.6467 115.412 12.2937 115.384Z" fill="white"/>
<path d="M12.2937 115.384C11.4477 115.413 10.6007 115.373 9.76123 115.265V99.9152C10.7287 99.7302 11.7126 99.6443 12.6976 99.6588C17.9944 99.6588 20.5901 102.511 20.5585 107.144C20.5585 112.388 17.6467 115.412 12.2937 115.384Z" fill="white"/>
<path d="M30.9097 93.0625V122.139H59.9824V93.0625H30.9097ZM50.5408 107.53C49.2202 108.935 47.067 109.638 44.6083 109.638C43.9307 109.66 43.2528 109.602 42.5886 109.466V117.242H40.0842V98.0994C41.6733 97.8151 43.2856 97.6799 44.8998 97.6955C47.3796 97.6955 49.1921 98.275 50.3441 99.3147C50.9108 99.8239 51.3591 100.451 51.6577 101.152C51.9562 101.852 52.0977 102.61 52.0723 103.372C52.0723 105.121 51.5524 106.505 50.5408 107.53Z" fill="white"/>
<path d="M44.6716 107.748C43.9741 107.764 43.2772 107.697 42.5957 107.548V100.003C43.3755 99.8613 44.1671 99.7943 44.9596 99.803C47.7274 99.803 49.5258 101.036 49.5258 103.635C49.5258 106.234 47.7239 107.748 44.6716 107.748Z" fill="white"/>
<path d="M0.03125 0.399902V60.3824H59.9997V0.399902H0.03125ZM51.4749 31.6293C50.6355 32.82 49.6204 33.93 48.8441 35.1418C48.9319 34.1829 49.0443 32.9992 48.665 32.0894C47.9572 30.1196 47.4856 28.0727 47.26 25.9918V25.1699C47.7482 27.3651 49.9084 28.879 49.7679 31.3413C49.7701 31.8925 49.6883 32.4409 49.5255 32.9675L49.5606 33.0097L49.659 32.8973C49.9786 31.6925 50.1367 30.4175 50.6355 29.29C51.338 27.6707 52.2231 26.0339 51.8648 24.074C52.9748 26.3922 52.6516 29.4726 51.4749 31.6293ZM50.1437 19.1881C50.8561 20.2261 51.2942 21.4275 51.417 22.6804C51.5399 23.9334 51.3435 25.197 50.8462 26.3536C50.4608 27.3037 50.1907 28.2966 50.0419 29.3111C49.9681 29.1354 49.954 28.8966 49.8908 28.6964C49.3288 26.5467 47.2916 25.0118 46.4521 22.9816C46.1787 22.3142 45.9728 21.6211 45.8374 20.9127C46.7331 22.5671 48.9389 23.4206 49.5396 25.2436C49.7854 25.7073 49.7714 26.2974 49.9189 26.7786C49.9351 26.7796 49.9511 26.7743 49.9635 26.7638C49.976 26.7534 49.9839 26.7385 49.9857 26.7224C49.75 24.8288 49.7749 22.9119 50.0594 21.0251C50.0419 20.0171 49.947 19.0441 49.3885 18.2679C49.7398 18.4751 49.9014 18.8755 50.1437 19.1881ZM49.1497 18.8193C49.522 20.4983 48.9811 22.1351 49.3218 23.8316C48.4086 22.0332 46.4662 21.1867 45.1349 19.7466C44.4163 18.8972 43.9631 17.8553 43.8318 16.7505C44.5975 18.598 46.6593 19.0055 47.843 20.5545C48.24 20.9057 48.3699 21.4115 48.6263 21.819L48.665 21.7768C47.9835 20.3227 47.7552 18.6858 47.2881 17.1368C47.0306 16.4262 46.5594 15.8127 45.9393 15.3806C47.4777 15.7108 48.823 17.3335 49.1497 18.8193ZM44.9909 14.9556C46.1676 16.0093 46.6945 17.3616 47.0387 18.7701L47.2284 19.2162C45.5084 17.9682 44.0392 16.4072 42.8975 14.6149L41.5698 13.2696C42.7394 13.7754 43.9934 14.0705 44.9909 14.9661V14.9556ZM22.7605 13.663C25.0255 12.554 27.5095 11.9648 30.0313 11.9384C33.0467 11.9564 35.9962 12.8224 38.5428 14.4373C41.0894 16.0522 43.1304 18.3509 44.4324 21.0708C46.1498 24.5615 46.5248 28.5616 45.4862 32.3107C44.3903 36.5854 40.7935 40.9092 36.6067 42.669C31.8929 44.9802 25.1911 44.4006 20.9902 41.3869C15.149 37.3862 12.757 30.4983 14.5237 23.6771C15.5986 19.6272 18.8195 15.5422 22.7605 13.663ZM18.1381 13.5049C16.9649 14.5341 16.157 15.8548 15.2789 17.0561C14.4956 18.022 13.4981 18.6613 12.6095 19.4902C13.0907 18.4997 13.1082 17.316 13.7861 16.4062C14.7521 14.7203 16.5434 14.1267 18.1381 13.5049ZM11.7173 17.0912C12.2469 16.4047 12.9874 15.9111 13.8248 15.6862C12.2477 16.7715 12.346 18.721 11.8437 20.3437C11.6822 20.9444 11.4047 21.4958 11.2677 22.1L11.3098 22.1316C11.6028 21.4077 12.0458 20.7541 12.6095 20.2138C13.737 19.16 15.4194 18.5278 15.9533 16.9928C15.9287 19.1284 14.1444 20.8039 12.4409 22.0051C11.7244 22.5872 11.1279 23.303 10.6846 24.1126C10.646 23.5787 10.7689 23.0343 10.7303 22.4582C10.5371 20.6001 10.3966 18.4751 11.7173 17.0912ZM8.51387 23.4628C8.4647 21.5766 9.24446 20.0346 10.3509 18.6296C10.3825 18.6296 10.4071 18.5805 10.4458 18.5875C9.23041 20.421 10.235 22.7603 10.1858 24.8608L10.0243 27.0104C10.0453 27.0104 10.0453 27.0912 10.1051 27.0631C10.1627 26.8186 10.2072 26.5712 10.2385 26.3219C10.5371 24.5868 12.0264 23.3574 13.3471 22.1772C13.6279 21.887 13.8551 21.5493 14.018 21.1797C13.8976 22.055 13.6503 22.9082 13.2838 23.7122C12.2582 25.6897 10.365 27.33 10.0208 29.6131C9.85563 27.4459 8.35932 25.7881 8.51387 23.4628ZM7.59009 26.1463C7.69297 25.5447 7.86019 24.956 8.08886 24.3901C7.60063 26.8839 9.27608 28.6788 9.82753 30.846C10.0594 31.6504 10.1191 32.5215 10.4458 33.2837C10.4774 33.2837 10.502 33.2837 10.523 33.2415C9.70109 30.9584 10.8883 28.8263 12.0756 27.0244C12.3483 26.5259 12.5493 25.9915 12.6727 25.4368C12.7991 26.4905 12.5392 27.6742 12.3847 28.7526C12.1001 30.126 11.6822 31.4291 11.2923 32.7638C11.0866 33.6316 11.0686 34.5334 11.2396 35.4087L11.1202 35.3139C10.2456 33.7087 8.5209 32.4512 8.0151 30.695C7.51601 29.2336 7.37036 27.6748 7.59009 26.1463ZM7.5093 31.0216C7.70249 33.67 10.5476 35.068 11.8683 37.2563C12.1505 37.7313 12.4851 38.1731 12.8659 38.5734C12.7991 38.2924 12.5392 38.0536 12.4444 37.7656C11.9845 36.7933 11.8103 35.7104 11.9421 34.643C12.0685 33.2907 12.6446 32.0367 12.4233 30.6142C13.5789 33.1151 13.2276 36.2341 13.8739 38.9423C14.0425 39.5323 14.3868 40.0592 14.6116 40.6282C12.2301 39.0055 8.99157 37.467 7.93783 34.4884C7.46364 33.4663 7.41447 32.1983 7.5093 31.0216ZM8.93537 37.0947C10.2596 40.0908 13.5824 40.3472 15.8058 42.1772C16.1949 42.5349 16.6338 42.8343 17.1089 43.0659L17.13 43.0413C16.5694 42.5835 16.0773 42.0476 15.6688 41.4502C14.3657 39.6377 14.8223 37.0947 13.8458 35.1277C14.7423 36.1427 15.4929 37.2776 16.0763 38.4997C16.8771 40.4667 17.1792 42.6865 19.0267 44.1758C17.0246 43.519 14.6888 43.7052 12.9256 42.4723C11.0148 41.3061 9.29364 39.3005 8.93537 37.0947ZM12.346 42.7146C14.4711 45.1382 17.966 44.3304 20.7759 44.9591C21.1624 45.0724 21.5641 45.1245 21.9667 45.1137C21.6154 44.8959 21.1588 44.9205 20.79 44.7273C18.5701 43.944 18.2435 41.5415 17.0352 39.9187C18.5771 40.9408 19.8697 42.3248 21.2958 43.6595C22.3179 44.5517 23.5473 44.9661 24.8399 45.2331C24.5308 45.3455 24.1374 45.3104 23.7861 45.4017C21.4644 45.9777 18.8687 46.912 16.4099 46.0691C14.6744 45.5053 13.2203 44.2988 12.346 42.6971V42.7146ZM41.2291 48.3557C38.83 49.2513 36.3292 48.317 34.457 46.8945C33.7194 46.4133 33.0169 45.7108 32.044 45.767C31.7086 45.749 31.3724 45.781 31.0464 45.8618C32.9175 46.7407 34.6273 47.9281 36.1044 49.3743C35.8207 49.675 35.5142 49.9533 35.1876 50.2067C33.7018 48.6015 32.0264 47.0455 30.1999 46.1533C29.8341 46.2375 29.4858 46.3849 29.1708 46.5889C27.5926 47.5571 26.2008 48.8002 25.0612 50.2594L24.1023 49.4691C25.5678 47.9696 27.2889 46.7433 29.1848 45.8478C27.3653 45.2752 26.1746 46.7996 24.7907 47.5759C23.182 48.6964 20.8602 49.2232 18.9073 48.4505C17.8123 48.0725 16.8409 47.4034 16.0973 46.5151C17.6358 47.5689 19.9189 47.6848 21.6576 46.9999C24.0004 45.9812 26.4275 44.6957 29.248 45.3104C29.6906 45.3104 30.1226 45.76 30.5371 45.3841C32.655 44.881 34.8834 45.1618 36.8104 46.1744L38.672 46.9156C40.4001 47.5548 42.6376 47.3827 44.1163 46.3219C43.3593 47.2486 42.3597 47.9466 41.2291 48.3381V48.3557ZM43.8002 45.8969C41.1061 46.912 38.398 45.6686 35.8163 45.2506L35.3211 45.1874C36.554 44.9099 37.7517 44.5411 38.7352 43.6525C40.1788 42.2475 41.4679 40.8425 43.0731 39.7361C41.8824 41.264 41.7594 43.4347 39.7925 44.4182C39.3007 44.7378 38.6895 44.794 38.1838 45.0364C38.9038 45.0364 39.5571 44.794 40.2702 44.7238C42.908 44.3128 45.9252 44.7238 47.7728 42.4863C47.0844 43.9967 45.3703 45.3104 43.8002 45.8618V45.8969ZM45.293 43.1572C43.9231 43.526 42.4514 43.6454 41.1132 44.0986C43.3752 42.1562 43.2487 39.153 44.7591 36.8664C45.2032 36.193 45.6839 35.5446 46.1992 34.924C45.2825 36.7715 45.6794 39.16 44.6221 40.9514C44.1893 41.6881 43.6388 42.349 42.9923 42.9078C43.2031 42.9078 43.3892 42.7182 43.5684 42.5952C45.2895 40.8882 47.5269 40.4069 49.3815 39.016C50.1444 38.4429 50.7488 37.685 51.1377 36.8137C50.7795 39.6131 47.959 42.2721 45.3106 43.1221L45.293 43.1572ZM48.6931 38.3205C47.6393 39.023 46.5505 39.6623 45.5318 40.4526V40.3613C47.1019 37.755 46.3327 34.1793 47.2881 31.3202L47.6393 30.3648C47.4391 32.1421 48.2119 33.656 48.1627 35.4438C48.1036 36.4816 47.765 37.4841 47.1827 38.3451H47.2775C48.0468 37.3406 48.6474 36.2693 49.5431 35.3068C50.9305 33.9651 52.3531 32.5917 52.5322 30.7406C53.0134 33.8035 51.2818 36.5257 48.6931 38.2854V38.3205Z" fill="white"/>
<path d="M29.5682 25.9707C29.4477 26.1335 29.2958 26.2705 29.1214 26.3737C28.9471 26.4768 28.7539 26.544 28.5531 26.5713C28.4513 26.6978 28.4759 26.9788 28.2265 26.9542C28.1492 27.1298 27.8752 27.2352 27.9806 27.4916C27.9037 27.7929 27.8578 28.1012 27.8436 28.4119C27.3694 28.7034 27.4924 28.0185 27.2711 27.8744L27.1868 28.0079C27.0955 28.0325 27.0287 27.9763 26.962 27.9131C26.9239 27.8898 26.8802 27.8775 26.8355 27.8775C26.7909 27.8775 26.7472 27.8898 26.7091 27.9131C26.6037 28.0887 26.4457 28.2327 26.4843 28.4716C26.4386 28.6156 26.1963 28.5664 26.2279 28.7174C26.5 28.7061 26.7704 28.6696 27.0358 28.6086C27.2219 28.6542 27.387 28.5207 27.5556 28.5137C27.6153 28.5453 27.6961 28.6086 27.668 28.7034H27.7488C27.8101 28.6634 27.8561 28.6037 27.879 28.5341C27.902 28.4645 27.9007 28.3892 27.8752 28.3205C27.8752 28.1519 28.079 28.1519 28.1878 28.1028C28.2897 28.1519 28.2265 28.2538 28.244 28.3381C28.5953 28.4716 28.1562 28.735 28.1071 28.9247C28.0579 29.1143 28.1071 29.4234 27.805 29.3743C27.7768 29.3661 27.7528 29.3472 27.7384 29.3215C27.724 29.2959 27.7201 29.2657 27.7277 29.2373H27.6856C27.6869 29.31 27.7078 29.381 27.7461 29.4429C27.7845 29.5047 27.8388 29.555 27.9033 29.5885C28.1211 29.4059 28.1316 29.0933 28.4548 29.0546C28.6199 28.879 28.381 28.6086 28.6304 28.4645C29.0449 28.4645 29.4875 28.2784 29.8176 28.6121C29.793 28.7596 29.7404 28.8263 29.8598 28.9422C29.7999 29.1385 29.702 29.3211 29.5718 29.4796C29.5908 29.5325 29.593 29.59 29.5779 29.6441C29.5628 29.6983 29.5312 29.7464 29.4875 29.7817C29.3786 30.27 28.8201 30.0381 28.4934 30.2067C28.999 30.579 29.6252 30.7493 30.2497 30.6844C30.6009 30.6844 30.4429 30.2454 30.6009 30.0557C30.7098 29.4972 31.2261 29.8801 31.5387 29.7255C31.6715 29.4965 31.7619 29.2454 31.8057 28.9844C31.7108 28.9209 31.6388 28.8286 31.6003 28.7211C31.5617 28.6136 31.5586 28.4966 31.5914 28.3873C31.458 28.2011 31.472 27.8639 31.1734 27.8323C31.1575 27.8012 31.1524 27.7658 31.1587 27.7315C31.1651 27.6972 31.1826 27.6659 31.2086 27.6426C31.2086 27.467 31.3737 27.4073 31.4228 27.2914C31.2402 27.172 31.2894 26.9085 31.3034 26.754C30.9908 26.8453 30.9522 26.4343 30.7274 26.3465C30.6712 26.1639 30.471 26.1323 30.3129 26.1007C29.93 26.2833 29.8668 25.8126 29.5788 25.7002C29.5472 25.6124 29.4804 25.486 29.5788 25.4157C29.6771 25.3455 29.93 25.4157 30.0811 25.3876L29.9441 25.3174C29.8176 25.1734 29.5401 25.2612 29.3715 25.3174C29.5366 25.4825 29.4699 25.7705 29.5682 25.9707Z" fill="white"/>
<path d="M30.3758 18.3628C30.6819 18.3172 30.9938 18.3279 31.2961 18.3944C32.8502 18.6013 34.3274 19.1956 35.5918 20.1225C35.4207 19.9692 35.2985 19.7688 35.2406 19.5465C35.2513 19.5322 35.2661 19.5215 35.283 19.5159C35.3 19.5102 35.3183 19.5099 35.3354 19.5149C35.3354 19.2655 35.0895 19.1391 35.0509 18.9143C35.0691 18.8856 35.0958 18.8634 35.1274 18.8507C35.1589 18.8381 35.1936 18.8358 35.2265 18.844C35.4872 19.0942 35.7225 19.3695 35.929 19.6659C36.1046 19.5957 36.2486 19.7081 36.3786 19.7994C36.6069 19.9364 36.4664 20.2349 36.642 20.393C36.6737 20.8637 37.2462 21.1306 37.2181 21.6013C37.2181 21.7102 37.3586 21.6259 37.4078 21.6821L37.8855 22.2687C37.8691 22.2955 37.8583 22.3254 37.8537 22.3565C37.8491 22.3876 37.8508 22.4193 37.8586 22.4498C37.8665 22.4802 37.8804 22.5088 37.8995 22.5338C37.9185 22.5588 37.9424 22.5797 37.9698 22.5953C38.184 22.6972 38.321 22.4232 38.5177 22.4618C38.8268 22.6375 38.4685 22.8447 38.5001 23.0379C38.6196 23.0379 38.7741 22.9431 38.8689 23.0625C38.9076 23.2381 38.7249 23.3505 38.6512 23.4629C38.6512 23.6385 38.7952 23.5999 38.9251 23.6385C38.9584 23.6412 38.9906 23.6513 39.0194 23.6682C39.0482 23.685 39.0728 23.7081 39.0913 23.7358C39.1099 23.7635 39.122 23.7951 39.1267 23.8281C39.1313 23.8611 39.1285 23.8948 39.1183 23.9265C39.5152 24.341 38.9989 24.7906 39.1886 25.2297C39.2313 25.3662 39.2342 25.5121 39.1968 25.6503C39.1595 25.7884 39.0835 25.913 38.9778 26.0094C38.9778 26.3607 38.6652 26.5785 38.5423 26.8735L38.1348 26.9543C37.9171 27.1685 38.321 27.4355 38.0997 27.569L38.9989 27.5865L38.9006 27.4917C38.8341 27.3051 38.8103 27.1061 38.831 26.9091C38.8517 26.7122 38.9162 26.5223 39.02 26.3537C39.1044 26.0365 39.2487 25.7385 39.445 25.4755C39.5012 25.4755 39.6031 25.3561 39.6522 25.4755C39.6817 25.758 39.6344 26.0432 39.5152 26.301C39.7752 26.6522 39.74 27.1475 39.7611 27.6006C40.5549 27.5514 41.3312 27.5374 42.1074 27.5479L42.0372 27.3933C41.9479 25.9603 41.5905 24.5568 40.9835 23.2557C40.8184 23.2557 40.6954 23.3997 40.5058 23.3505C40.4744 23.3384 40.4479 23.3165 40.4301 23.2879C40.4124 23.2594 40.4044 23.2259 40.4074 23.1924C40.1347 22.8506 39.8427 22.5246 39.5328 22.216C39.1183 22.2546 38.9357 21.7839 38.5704 21.7348C38.2437 21.6013 38.4685 21.0709 37.9943 21.2184C37.8726 21.1777 37.7629 21.1072 37.6752 21.0133C37.5875 20.9195 37.5245 20.8053 37.4921 20.681C37.5135 20.4694 37.4835 20.2558 37.4046 20.0582C37.3257 19.8607 37.2003 19.6851 37.039 19.5465C36.7474 19.4411 36.6315 19.824 36.3365 19.7608C36.1784 19.68 36.2486 19.4727 36.1995 19.3393C36.1503 19.2058 36.0098 19.132 36.0344 18.9705C36.4102 18.4752 35.5778 18.4857 35.7604 17.9975C35.7112 17.6463 35.353 17.5058 35.1703 17.2283C33.9476 16.6605 32.6442 16.2861 31.3066 16.1183C30.9554 16.0692 30.6427 16.1429 30.3477 15.9849L30.425 16.1324C30.3969 16.877 30.4496 17.6673 30.3758 18.3628Z" fill="white"/>
<path d="M29.2973 37.8465C27.422 37.7393 25.6236 37.0644 24.141 35.9111C24.1901 36.1008 24.443 36.2273 24.3728 36.4626C24.2358 36.6839 23.9583 36.6874 23.737 36.6839C23.2769 36.6066 22.9432 36.9543 22.5147 37C22.1213 37.1194 21.9843 36.6488 21.626 36.6839C23.8459 38.6192 26.3854 39.8451 29.3535 39.9961L29.5783 40.1472L29.4799 39.8767V37.7692L29.2973 37.8465Z" fill="white"/>
<path d="M18.0651 28.6262L18.2372 30.0944C18.3075 30.6634 18.5568 31.2078 18.5393 31.7663C18.6271 31.6469 18.5744 31.4151 18.7887 31.3835C18.7009 31.2078 18.9573 31.0533 18.8133 30.9023C18.8269 30.5059 18.9901 30.1295 19.2699 29.8485C19.6773 29.8485 19.7054 29.2935 20.1164 29.2725C20.3236 29.2725 20.4501 29.5429 20.5414 29.6237C20.4379 29.4513 20.3697 29.2601 20.3407 29.0611C20.3118 28.8621 20.3227 28.6593 20.3728 28.4646L20.1972 28.5454C19.4535 28.575 18.7086 28.5597 17.9668 28.4997L18.0651 28.6262Z" fill="white"/>
<path d="M21.1838 19.7607V19.9118L20.3198 21.0112C18.9148 22.9501 18.2334 25.198 18.0332 27.6427L20.2249 27.6006L20.4322 27.6813C20.3444 27.6251 20.3654 27.5303 20.3373 27.4495C20.4656 25.2141 21.3656 23.0925 22.8839 21.4467C22.2748 20.9291 21.7065 20.3655 21.1838 19.7607Z" fill="white"/>
<path d="M33.3125 33.6666C33.6005 33.8177 33.9482 33.8282 34.2538 33.9546C34.5243 34.0249 34.7105 34.3621 35.0476 34.2567C35.3392 34.0987 35.8169 34.3551 36.0101 34.0495C35.9784 33.7544 36.2349 33.5367 36.3613 33.2838L36.4526 33.2592C36.6142 33.4278 36.6072 33.6772 36.6774 33.8598C36.9022 33.621 37.0779 33.354 37.2781 33.1081C37.8209 32.3709 38.2168 31.5362 38.4442 30.6494C38.2308 30.6585 38.0195 30.6951 37.8155 30.7583C37.5836 30.7583 37.3027 30.8812 37.113 30.7197C37.0427 30.66 36.99 30.7548 37.0041 30.818C36.9198 30.9374 36.839 31.0885 36.6528 31.0323C36.4667 30.9761 36.5088 30.818 36.4597 30.7056C36.4615 30.7892 36.4484 30.8725 36.421 30.9515C36.2815 31.1149 36.1634 31.2955 36.0698 31.4889C35.9012 31.6715 35.6272 31.6083 35.4516 31.7594C35.42 32.1422 34.995 32.0614 34.7491 32.1844C34.7491 32.23 34.7877 32.2406 34.8123 32.2792C34.872 32.3042 34.9379 32.3098 35.0009 32.2953C35.0639 32.2808 35.1208 32.2469 35.1636 32.1984C35.5148 32.2897 35.427 31.8472 35.6237 31.7207C35.7888 31.6961 35.9503 31.5521 36.1225 31.6645C36.2867 31.8997 36.3557 32.1884 36.3156 32.4724C36.1225 32.6621 36.2208 32.9747 36.0838 33.1995C36.1154 33.4629 35.7923 33.5823 35.8344 33.8458C35.7751 33.8983 35.7052 33.9376 35.6296 33.9612C35.5539 33.9848 35.4741 33.9922 35.3954 33.9827C34.7532 33.7398 34.0808 33.5861 33.3968 33.5261C33.3691 33.5368 33.3458 33.5565 33.3305 33.5819C33.3153 33.6074 33.3089 33.6372 33.3125 33.6666Z" fill="white"/>
<path d="M21.6263 29.7328C21.6474 29.5888 21.4331 29.5501 21.4577 29.4061C21.6087 29.1111 21.4577 28.6334 21.8581 28.5034C21.7325 28.5484 21.5986 28.5654 21.4657 28.5532C21.3329 28.5411 21.2043 28.5001 21.0889 28.4331L21.2083 28.6263C21.2083 29.1532 21.4331 29.6555 21.3207 30.1929C21.4261 30.0383 21.4261 29.8311 21.6263 29.7328Z" fill="white"/>
<path d="M33.291 30.7373C33.2899 30.8749 33.3358 31.0087 33.421 31.1167C33.7301 31.071 33.6001 31.503 33.8846 31.4679C34.0462 31.4187 33.8846 31.2818 33.9373 31.1799C33.8952 30.9375 33.6598 30.913 33.4983 30.7689C33.4807 30.7233 33.4983 30.6811 33.5369 30.6425C33.421 30.5758 33.3683 30.6495 33.291 30.7373Z" fill="white"/>
<path d="M36.6631 38.0783L36.7755 37.9273C37.2759 37.5698 37.7458 37.1715 38.1805 36.7366H38.2402C38.1419 36.705 38.0189 36.7998 37.9101 36.7366C37.6817 36.6312 37.6466 36.431 37.6466 36.1992L36.6631 35.1841L36.6104 35.033C36.5278 35.2079 36.4079 35.3626 36.2592 35.4861C36.2592 35.6161 36.2205 35.8093 36.3751 35.8936C36.6912 35.999 37.1057 36.2097 37.1794 36.5961C37.0495 36.9473 36.3786 37.267 36.7931 37.6498C36.9336 37.8465 36.6104 37.9168 36.6631 38.0783Z" fill="white"/>
<path d="M25.4442 29.8487C25.3669 29.8065 25.3564 29.817 25.2932 29.8873C25.2543 29.8997 25.2126 29.8997 25.1737 29.8873C25.1737 29.4342 24.6644 29.7046 24.4712 29.4658C24.696 29.8803 24.8225 30.3509 25.0438 30.7654C25.1913 31.1166 25.5074 31.4222 25.6549 31.784C25.8573 31.4949 26.088 31.2267 26.3434 30.9832C26.3518 30.9285 26.3493 30.8728 26.3361 30.8191C26.3228 30.7655 26.299 30.715 26.2661 30.6706C26.1959 30.502 26.2661 30.2631 26.1326 30.1191C25.9289 30.1929 26.2064 30.4001 26.1326 30.523C26.1141 30.5331 26.0933 30.5383 26.0722 30.5382C26.0511 30.5382 26.0304 30.5328 26.0119 30.5227C25.9934 30.5126 25.9777 30.498 25.9663 30.4803C25.9549 30.4625 25.948 30.4422 25.9465 30.4212C25.8566 30.4015 25.7734 30.3587 25.705 30.2972C25.6367 30.2356 25.5855 30.1573 25.5566 30.0699C25.676 29.9681 25.4863 29.9259 25.4442 29.8487Z" fill="white"/>
<path d="M39.1147 19.1883C39.2869 19.2269 39.336 19.4271 39.466 19.5395C40.0455 19.8486 40.1966 20.4739 40.7094 20.8251C40.9974 21.4292 41.6613 21.8788 41.6859 22.5813C42.4223 24.1364 42.8346 25.825 42.8977 27.5444L42.838 27.6393C42.9066 27.6366 42.9723 27.6106 43.0241 27.5655L45.3318 27.5269C45.1808 27.3021 45.2405 26.9754 45.2019 26.705C44.8963 23.1468 43.3789 20.1015 40.9869 17.418C40.4934 18.0214 39.9619 18.5928 39.3957 19.1286L39.1147 19.1883Z" fill="white"/>
<path d="M30.952 25.1067C31.1347 25.2121 31.2365 25.0224 31.3946 24.9802C31.6055 25.0351 31.7922 25.1587 31.925 25.3315C32.069 25.3947 32.206 25.3104 32.3324 25.2612C32.4238 24.5974 33.2527 24.6957 33.4986 24.0705L33.3475 24.1302C33.2843 24.0389 33.1262 24.0775 33.1333 23.937C33.2671 23.7782 33.4305 23.647 33.6145 23.5507C32.9144 23.0823 32.1452 22.7267 31.3349 22.4969C31.0118 22.4511 30.6916 22.3866 30.376 22.3037C30.527 22.7604 30.376 23.4277 30.4884 23.9581L31.0609 24.1478C31.233 23.8703 31.5983 23.7965 31.7634 23.5507C31.8688 23.4628 31.9882 23.5507 32.069 23.6455C32.0831 23.8718 32.0471 24.0985 31.9636 24.3094C31.7494 24.7414 31.2365 24.7941 30.952 25.1067Z" fill="white"/>
<path d="M39.4662 30.4773C39.1654 31.5638 38.691 32.5945 38.0612 33.5296C37.7978 33.8809 37.5379 34.3305 37.2007 34.5061L37.9348 35.1454C37.9734 35.1067 37.9348 35.04 37.9629 34.9873C37.991 34.9346 38.0086 34.7766 38.128 34.7941C38.4792 34.7941 38.4792 35.1454 38.6865 35.3526C38.6443 35.6582 38.9113 35.897 38.8199 36.178C40.7683 34.1052 41.9075 31.4016 42.0303 28.5595L42.1357 28.433C41.4332 28.5033 40.6605 28.4541 39.9193 28.4646L39.7402 28.4084C39.7461 28.8907 39.7097 29.3726 39.6313 29.8486L39.8912 30.1331C39.923 30.1891 39.935 30.2541 39.9255 30.3178C39.9159 30.3814 39.8853 30.4401 39.8385 30.4843C39.7846 30.5249 39.7187 30.5463 39.6512 30.545C39.5837 30.5437 39.5186 30.5199 39.4662 30.4773Z" fill="white"/>
<path d="M37.4746 28.3557L37.7205 28.5981C37.9664 28.7702 37.8013 29.125 38.0717 29.2725C38.3422 29.42 38.4932 29.7923 38.6337 30.0628C38.6672 29.9889 38.6908 29.911 38.704 29.831C38.8129 29.3919 38.7953 28.8967 38.9323 28.4646C38.4443 28.5351 37.9467 28.498 37.4746 28.3557Z" fill="white"/>
<path d="M32.9258 19.7186C32.0871 19.4544 31.2249 19.2721 30.3511 19.1741L30.4319 19.3498V21.5134L30.6427 21.4748C31.9441 21.6164 33.1802 22.1188 34.2113 22.9255L34.2675 23.0941C34.6188 22.5918 35.1702 22.1597 35.5917 21.6891L35.9921 21.4537L35.7989 21.3765C34.9489 20.6552 33.9755 20.0936 32.9258 19.7186Z" fill="white"/>
<path d="M37.5414 23.4067C37.2368 22.9052 36.8838 22.4346 36.4877 22.0017L36.4491 22.1001C35.7114 22.8623 34.9036 23.6561 34.2046 24.4394C34.2497 24.5374 34.3247 24.6186 34.4189 24.6712C34.4505 24.478 34.5558 24.3199 34.5734 24.1127C34.7596 23.8493 35.0511 24.0144 35.297 24.0706C35.6798 23.9827 36.0416 24.1584 36.4315 24.1513C36.723 24.2954 36.7476 24.6642 37.0075 24.8082C37.0813 24.91 37.0251 25.0295 36.9268 25.1102C37.0075 25.7109 37.278 24.9522 37.6011 25.1102C37.7276 25.1594 37.8857 25.1419 37.9805 25.2788C38.0297 25.5282 38.3317 25.4826 38.3317 25.7179C38.3072 25.8373 38.1807 25.8689 38.0964 25.9357C38.1737 26.1745 37.854 26.3256 37.9629 26.582C38.4266 26.6698 38.4441 26.1324 38.6654 25.8795C38.5769 25.4581 38.4266 25.0521 38.2193 24.6747C37.9594 24.6185 37.7978 24.3235 37.5168 24.2497C37.0181 24.0284 37.6082 23.7088 37.5414 23.4067Z" fill="white"/>
<path d="M32.3918 32.3635C32.5814 32.1668 32.9854 32.1738 33.0029 31.8893C32.7219 31.8436 32.5814 31.9982 32.3918 32.1492C32.3637 32.2089 32.2794 32.3213 32.3918 32.3635Z" fill="white"/>
<path d="M29.5049 40.9551L29.5857 40.8357L29.3399 40.8989C26.2862 40.7559 23.3888 39.5075 21.1874 37.3865L21.1628 37.4813L19.519 39.1357C21.8997 41.281 24.8646 42.6699 28.0367 43.1258C28.5693 43.1566 29.0995 43.2199 29.6244 43.3155L29.5049 43.1258V40.9551Z" fill="white"/>
<path d="M30.927 33.8597C31.1378 33.8983 30.9902 34.1231 31.1413 34.2109C31.4679 34.1056 31.7208 34.4884 31.9808 34.2496C31.9808 33.8737 32.3917 33.8983 32.62 33.8105C32.9713 33.5928 33.3893 33.3082 33.3506 32.827L33.2909 32.7568C33.0415 32.7568 32.9151 32.9465 32.7359 33.108C32.5568 33.2696 32.3847 32.8692 32.2126 32.957C32.2126 32.9956 32.2618 33.0132 32.2934 33.0308C32.3208 33.0631 32.3359 33.1042 32.3359 33.1467C32.3359 33.1891 32.3208 33.2302 32.2934 33.2626C32.0229 33.5085 31.8965 33.1396 31.6365 33.1642V33.2626C31.6365 33.3188 31.6365 33.4031 31.5452 33.3715C31.3801 33.108 31.0535 33.2064 30.8919 32.9746C30.7935 32.9184 30.6952 32.9746 30.6249 33.0554C30.5652 33.1748 30.3123 33.0554 30.3756 33.2485C30.1754 33.3188 30.1543 33.5295 30.0243 33.663C29.7749 33.6173 29.6731 33.8983 29.4307 33.8948C29.4553 33.9405 29.4307 34.0213 29.501 34.0283C29.6472 34.0899 29.8078 34.1094 29.9646 34.0845C30.207 33.6841 30.5898 34.0037 30.927 33.8597Z" fill="white"/>
<path d="M20.6673 36.8067C20.3897 36.5804 20.1398 36.3222 19.9226 36.0374C19.7824 36.0008 19.6508 35.9365 19.5356 35.8485C19.4204 35.7604 19.3239 35.6503 19.2517 35.5246C19.1709 35.4333 19.2517 35.2752 19.1569 35.212L19.0585 35.3314C18.7776 35.4649 18.6792 35.1769 18.486 35.061C18.2366 34.924 18.3596 34.4533 18.0189 34.5376C17.8959 34.5376 17.8538 34.3866 17.773 34.3093C17.4639 34.3374 17.3831 33.9967 17.2145 33.8281C17.1829 33.9019 17.2145 33.9967 17.1197 34.0424C16.8 34.1161 16.6876 33.7262 16.4699 33.5612C16.4137 33.5857 16.375 33.656 16.2942 33.6384C16.197 33.5538 16.1176 33.4505 16.0609 33.3346C16.0042 33.2188 15.9713 33.0928 15.9641 32.964C15.7006 32.6655 15.8236 32.1983 15.8692 31.8365C15.9184 31.7417 16.0589 31.689 16.0308 31.5661C16.1046 31.3975 16.2802 31.3834 16.4488 31.3764C16.5141 31.4116 16.5688 31.4637 16.6068 31.5274C16.7122 31.4607 16.9581 31.5274 16.8562 31.3026C17.0092 31.193 17.1887 31.1263 17.3761 31.1095C17.4758 31.2862 17.5935 31.4522 17.7273 31.6047L17.6184 31.4326C17.4117 30.6367 17.2823 29.8227 17.2321 29.002C17.2321 28.9528 17.1302 28.9282 17.1899 28.8825V28.9071C17.1858 28.7569 17.1941 28.6065 17.2145 28.4575L17.0002 28.5383H14.7769C14.8917 30.9974 15.5605 33.3988 16.7333 35.5633C17.3023 36.617 18.1383 37.5654 18.8408 38.5489L20.4319 36.9015L20.6673 36.8067Z" fill="white"/>
<path d="M27.9206 34.8573C28.0873 34.6825 28.2932 34.5501 28.5213 34.4709C27.8188 34.6149 27.1865 34.1196 26.5789 33.8211C26.2276 33.5682 25.7886 33.3574 25.5813 32.9746C25.1036 33.5668 24.5708 34.1125 23.9902 34.6044C24.2361 34.6044 24.373 34.8924 24.5838 35.0153C25.7815 36.0129 27.2743 36.4941 28.6618 36.8383L28.2824 36.6592C27.9944 36.3325 27.5799 35.9567 27.5799 35.493C27.8574 35.3912 27.8258 35.075 27.9206 34.8573Z" fill="white"/>
<path d="M30.4147 40.0908C31.0048 39.8906 31.6932 39.9222 32.3325 39.8168C32.1966 39.7863 32.0737 39.7138 31.9813 39.6096C31.6054 39.585 31.4298 39.1951 31.3104 38.9071C31.2542 38.6964 31.4017 38.5172 31.4895 38.3346C31.3279 38.0044 30.8327 38.2433 30.5447 38.1273C30.4639 38.0606 30.4077 37.9658 30.2988 37.9482L30.4147 38.1273C30.4547 38.7812 30.4547 39.4369 30.4147 40.0908Z" fill="white"/>
<path d="M38.8721 37.2178C38.6438 37.6534 38.1696 37.9203 37.7762 38.2716C37.2564 38.7914 36.4099 38.9003 36.1429 39.6555C35.8655 39.9084 35.7706 40.3088 35.3807 40.4528C35.2332 40.8356 34.8258 40.804 34.5939 41.0885C33.9231 41.6892 33.491 40.7092 32.8834 40.5898L31.661 40.804C31.236 40.804 30.8145 40.9551 30.4141 40.804C30.4738 41.6401 30.4738 42.4794 30.4141 43.3154L30.5651 43.2171C34.3065 43.0662 37.8675 41.5694 40.5932 39.0021L38.9108 37.3969L38.8721 37.2178Z" fill="white"/>
<path d="M42.9367 28.4646L42.8032 28.3662L42.8805 28.584C42.7665 31.1511 41.8829 33.6245 40.3445 35.6827C40.0798 36.0665 39.7643 36.4127 39.4067 36.7119C40.0456 37.2495 40.6411 37.8367 41.1875 38.4681L41.2507 38.3487C43.6864 35.6651 45.098 32.2089 45.2374 28.5875L45.3357 28.3978L45.2163 28.454L42.9367 28.4646Z" fill="white"/>
<path d="M17.2533 27.6673L17.2112 27.3547C17.3442 24.8901 18.1763 22.5143 19.6102 20.5053C19.9614 20.0979 20.2319 19.5886 20.6815 19.283C20.1616 18.7948 19.6277 18.2293 19.0728 17.6919L19.0166 17.4741C16.7693 19.8829 15.3333 22.9354 14.9105 26.2026C14.8227 26.6838 14.8824 27.179 14.7876 27.6673C15.6081 27.6005 16.4327 27.6005 17.2533 27.6673Z" fill="white"/>
<path d="M23.4707 22.0615C22.3756 23.3222 21.6339 24.8504 21.3211 26.4907C21.2333 26.8735 21.2824 27.3196 21.1279 27.6814C21.4526 27.5829 21.7971 27.5684 22.1289 27.6393C21.9498 27.5444 22.0973 27.3126 21.992 27.1862C21.9674 26.9895 21.9358 26.7401 22.1289 26.6101C22.1079 26.2835 22.4556 26.1149 22.4802 25.8198C22.568 25.4686 22.9509 25.7074 23.1335 25.5318C23.2529 25.4686 23.1335 25.3562 23.1335 25.2683C23.2916 25.0506 23.5409 25.0611 23.7306 24.9417C23.8634 24.7159 24.0475 24.5246 24.268 24.3832C24.7457 24.3832 24.7563 23.7264 25.2094 23.7088C24.5951 23.1975 24.0144 22.6473 23.4707 22.0615Z" fill="white"/>
<path d="M26.2661 32.339C27.0935 33.0301 28.0901 33.4884 29.1534 33.6667C29.206 33.4524 29.1217 33.182 29.2341 32.9958C29.3465 32.8097 29.5257 32.8272 29.6873 32.8588C29.7101 32.8555 29.7317 32.8465 29.75 32.8326C29.7684 32.8188 29.783 32.8005 29.7925 32.7795C29.802 32.7585 29.806 32.7354 29.8041 32.7125C29.8023 32.6895 29.7947 32.6673 29.7821 32.6481C29.5538 32.6059 29.6556 32.3495 29.5749 32.2055C29.5749 32.1247 29.7189 32.1423 29.6873 32.0369C29.5257 31.907 29.7645 31.7665 29.6311 31.6295C29.6697 31.6049 29.7013 31.5557 29.7399 31.5276C29.2552 31.7313 28.7424 31.4363 28.3139 31.2466C28.1031 31.1237 27.8011 31.0078 27.7554 30.7478C27.3971 31.3098 26.7438 31.8191 26.2661 32.339Z" fill="white"/>
<path d="M22.4554 28.4997L22.3922 28.9247C22.2974 29.1741 21.9848 28.9879 21.8407 29.1565C21.6967 29.3251 21.8407 29.4832 21.9356 29.6096C21.7143 30.1225 22.4414 30.284 22.4308 30.7442C22.6556 31.0357 22.3992 31.4467 22.7224 31.7066C22.7926 32.2264 22.6486 32.9289 23.1052 33.3364L23.1825 33.8351C23.2738 34.1864 22.7715 34.088 22.8313 34.3936C22.9296 34.348 22.9507 34.4744 22.9577 34.506C23.5921 33.7571 24.2775 33.053 25.009 32.3985L24.7069 32.093C24.1276 31.2643 23.7105 30.3335 23.4776 29.3497L23.2457 29.2338C23.1963 29.4659 23.1587 29.7004 23.1333 29.9363L23.0525 30.0311C22.8875 30.0311 22.7821 29.8871 22.6381 29.7993C22.6029 29.7115 22.5151 29.5675 22.6381 29.4972C22.7066 29.4923 22.7747 29.5109 22.8313 29.5499C22.9015 29.4656 22.8699 29.3392 22.912 29.2268C22.9331 29.0336 22.7645 28.8755 22.8839 28.6894C23.035 28.6894 23.1474 28.858 23.2106 28.9598C23.3652 29.009 23.4846 28.8826 23.611 28.8264C23.611 28.6894 23.8007 28.5067 23.611 28.4259C23.6936 28.1176 23.6936 27.7929 23.611 27.4846C23.5267 27.2212 23.2317 27.2668 23.0139 27.2914C22.3676 27.4986 23.1193 27.9939 22.9612 28.3838C22.8629 28.6261 22.624 28.4084 22.4554 28.4997Z" fill="white"/>
<path d="M26.9791 30.0803C26.9197 30.283 26.8055 30.4653 26.6489 30.6072H26.6946C26.8843 30.4702 27.0248 30.2243 27.2671 30.2102L26.9791 30.0803Z" fill="white"/>
<path d="M29.5048 22.3916C28.2132 22.5041 27.004 23.0732 26.0942 23.9968H26.2663C26.463 24.19 26.7721 24.1478 26.9161 24.4078C26.9899 24.5483 26.7791 24.5342 26.7897 24.6536C26.8318 24.6852 26.8845 24.6923 26.9161 24.7485C27.0671 24.8012 27.0355 24.6607 27.0952 24.5974C27.2919 24.4007 27.3271 24.7906 27.5167 24.7906C27.5476 24.7657 27.5831 24.7473 27.6213 24.7364C27.6594 24.7256 27.6993 24.7225 27.7387 24.7274C27.778 24.7323 27.816 24.7451 27.8503 24.765C27.8845 24.785 27.9145 24.8116 27.9382 24.8433C28.0682 24.7309 28.3422 24.8433 28.3808 24.629C28.6302 24.3656 28.4932 23.9582 28.8585 23.7896C28.9885 23.8633 28.8585 23.9827 28.9007 24.0951C29.1465 24.197 29.4275 23.8844 29.6242 24.1373C29.485 23.5665 29.4446 22.9761 29.5048 22.3916Z" fill="white"/>
<path d="M21.2821 18.6824L21.3207 18.57C23.5486 16.4831 26.4544 15.2696 29.5048 15.1524L29.4345 14.9627L29.4064 13.0414L29.4732 12.8201C26.3632 12.9463 23.3627 14.0036 20.8606 15.8549C20.3724 16.2062 19.9403 16.7014 19.4556 16.9929H19.5259C20.162 17.5009 20.7499 18.0665 21.2821 18.6824Z" fill="white"/>
<path d="M29.4696 16.062C27.2369 16.1766 25.0778 16.898 23.2245 18.1484C22.7257 18.4996 22.2726 18.9387 21.7598 19.2443C22.3534 19.6166 22.8416 20.2418 23.3755 20.7371L23.4317 20.8881C24.7669 19.6401 26.43 18.7982 28.2262 18.461C28.6448 18.3624 29.0761 18.3292 29.5048 18.3626C29.4387 17.5975 29.4269 16.8287 29.4696 16.062Z" fill="white"/>
<path d="M29.3783 19.227C27.4075 19.3917 25.5403 20.179 24.0464 21.4749C24.654 21.8964 25.195 22.5743 25.7499 23.0626C25.793 23.0063 25.8329 22.9477 25.8694 22.8869C26.5962 22.3184 27.423 21.8907 28.307 21.626C28.7039 21.5873 29.0973 21.3977 29.5118 21.489C29.4275 20.7056 29.4275 19.9155 29.5118 19.1321L29.3783 19.227Z" fill="white"/>
<path d="M23.8285 35.5037L23.7969 35.4475L23.8285 35.5459V35.5037Z" fill="white"/>
<path d="M31.9071 12.9114C31.385 12.8807 30.8653 12.8173 30.3511 12.7217C30.4318 13.4532 30.44 14.1909 30.3757 14.9241C30.3784 14.8554 30.4044 14.7898 30.4495 14.7379C30.5619 14.6712 30.6532 14.7695 30.6989 14.8468C30.7445 14.9241 30.7586 15.1524 30.6637 15.198C30.7586 15.198 30.8077 15.1418 30.892 15.1418C32.6679 15.2708 34.3925 15.7953 35.9395 16.6768V16.6381C36.2486 16.4836 36.642 16.2869 36.9686 16.5574C37.3515 16.4133 37.4252 16.884 37.7343 16.9402C37.9448 17.0488 38.1296 17.2012 38.2762 17.3872C38.4229 17.5733 38.5279 17.7885 38.5844 18.0185C38.6511 18.1626 38.8794 18.2644 38.911 18.419C39.1674 17.8745 39.6767 17.4882 40.1193 17.014L40.3898 16.9016C38.0645 14.6946 35.09 13.2954 31.9071 12.9114ZM33.4456 14.5447C33.3135 14.6848 33.1444 14.7845 32.9579 14.8324C32.7714 14.8803 32.5751 14.8743 32.3919 14.8152C31.865 14.9205 31.1274 15.2226 30.7059 14.6817C30.6848 14.6395 30.6391 14.5833 30.6848 14.5447C30.7551 14.4183 30.9377 14.4639 31.036 14.5026L32.1881 14.0108C32.6483 14.0495 33.1611 14.1057 33.4351 14.4885L33.4456 14.5447ZM37.9662 16.7646C37.5341 16.877 37.4955 16.3923 37.1618 16.2693C37.1145 16.2019 37.0944 16.1191 37.1056 16.0375C37.2566 15.8549 37.4007 16.1604 37.5657 15.9989C37.6436 16.014 37.7165 16.0482 37.7778 16.0985C37.8391 16.1487 37.8869 16.2135 37.917 16.2869C37.8854 16.466 38.0961 16.6206 37.9662 16.7646Z" fill="white"/>
</g>
</g>
</g>
<defs>
<clipPath id="clip0_1_28338">
<rect width="60" height="123" fill="white"/>
</clipPath>
<clipPath id="clip1_1_28338">
<rect width="60" height="123" fill="white"/>
</clipPath>
<clipPath id="clip2_1_28338">
<rect width="60" height="123" fill="white"/>
</clipPath>
</defs>
</svg>
