<svg width="55" height="110" viewBox="0 0 55 110" fill="none" xmlns="http://www.w3.org/2000/svg">
<g clip-path="url(#clip0_151_5194)">
<g clip-path="url(#clip1_151_5194)">
<g clip-path="url(#clip2_151_5194)">
<path d="M26.2064 55.6495H0.0268555V81.8291H26.2064V55.6495Z" fill="#006EB5"/>
<path d="M6.6709 59.9407V70.2358C6.6709 75.6448 9.37538 77.7092 12.9814 77.7092C16.7677 77.7092 19.5894 75.5276 19.5894 70.1547V59.9407H17.2725V70.3169C17.2725 74.1573 15.5867 75.8702 13.0265 75.8702C10.6826 75.8702 8.95169 74.2024 8.95169 70.3169V59.9407H6.6709Z" fill="white"/>
<path d="M53.9999 55.6495H27.8203V81.8291H53.9999V55.6495Z" fill="#006EB5"/>
<path d="M36.4745 77.529V70.0195C36.4745 67.1077 36.4745 65.0072 36.3212 62.8075H36.4024C37.3636 64.8112 38.4537 66.7505 39.6658 68.6132L45.192 77.529H47.4728V60.0039H45.3543V67.3421C45.3543 70.0466 45.3543 72.1651 45.6067 74.5H45.5255C44.6249 72.5354 43.5855 70.6375 42.4154 68.8205L36.8441 59.9768H34.356V77.529H36.4745Z" fill="white"/>
<path d="M53.9999 83.4338H27.8203V109.613H53.9999V83.4338Z" fill="#006EB5"/>
<path d="M45.3366 89.0591C44.2908 88.1576 42.6321 87.6077 40.4324 87.6077C38.9789 87.5925 37.5272 87.7133 36.0962 87.9683V105.214H38.3499V98.2635C38.9433 98.3825 39.5481 98.4338 40.1529 98.4167C41.1316 98.4717 42.1113 98.3266 43.032 97.9903C43.9527 97.654 44.7951 97.133 45.5078 96.4605C45.9788 95.961 46.3432 95.3714 46.5787 94.726C46.8144 94.0814 46.9163 93.3954 46.8781 92.7102C46.8945 92.0332 46.7645 91.3598 46.4968 90.7377C46.2292 90.1155 45.8304 89.5582 45.3275 89.1042" fill="white"/>
<path d="M40.2247 96.6589C39.5948 96.6733 38.9653 96.6129 38.3496 96.4786V89.6813C39.0521 89.5583 39.7641 89.4979 40.4771 89.501C42.9653 89.501 44.606 90.6098 44.606 92.9537C44.606 95.2976 42.9653 96.6589 40.2247 96.6589Z" fill="#006EB5"/>
<path d="M26.1796 83.4608H0V109.64H26.1796V83.4608Z" fill="#006EB5"/>
<path d="M18.4089 89.7353C16.8763 88.3109 14.5685 87.5807 11.3321 87.5807C9.71469 87.5829 8.09973 87.7034 6.5 87.9413V105.142C7.87065 105.296 9.24979 105.362 10.6289 105.34C14.0276 105.34 16.723 104.439 18.3818 102.834C19.2311 101.924 19.8909 100.855 20.3227 99.6887C20.7546 98.5213 20.9497 97.2799 20.897 96.0368C20.967 94.8675 20.7806 93.6965 20.3509 92.6065C19.921 91.5166 19.2582 90.5331 18.4089 89.7263" fill="white"/>
<path d="M11.0703 103.537C10.3084 103.563 9.54564 103.527 8.78955 103.429V89.6091C9.65914 89.4368 10.5446 89.3582 11.4309 89.3747C16.1999 89.3747 18.5438 91.944 18.5167 96.1179C18.5167 100.833 15.8934 103.555 11.0703 103.537Z" fill="#006EB5"/>
<path d="M54.0267 0H0.0268555V54.0089H54.0267V0Z" fill="#006EB5"/>
<path d="M46.3461 28.1178C45.5889 29.1906 44.6784 30.1912 43.9752 31.2821C44.1368 30.366 44.0844 29.4249 43.8219 28.5325C43.1851 26.7594 42.7644 24.9161 42.5688 23.0423V22.3031C43.0106 24.2864 44.9578 25.6477 44.8316 27.8654C44.8351 28.3604 44.7621 28.8531 44.6153 29.3258L44.7054 29.2266C44.9218 28.1232 45.2231 27.0382 45.6069 25.9812C46.238 24.5208 47.0313 23.0514 46.7157 21.2844C47.1566 22.3759 47.3504 23.5513 47.2833 24.7265C47.2163 25.9016 46.8901 27.0474 46.3281 28.0817" fill="white"/>
<path d="M45.147 16.9122C45.7878 17.8476 46.1817 18.9299 46.292 20.0584C46.4023 21.1869 46.2255 22.325 45.778 23.3669C45.4289 24.2358 45.1867 25.1439 45.0568 26.0714C44.9847 25.9091 44.9757 25.6928 44.9126 25.5125C44.4077 23.5833 42.5777 22.195 41.8204 20.3739C41.5735 19.7724 41.3892 19.1471 41.2705 18.5078C42.0728 19.9953 44.0561 20.7616 44.597 22.4023C44.7608 22.8514 44.8757 23.3169 44.9396 23.7906C44.9549 23.7907 44.9697 23.7854 44.9814 23.7754C44.993 23.7655 45.0006 23.7517 45.0027 23.7365C44.7888 22.0195 44.813 20.2812 45.0748 18.5709C45.1379 17.7017 44.9266 16.8346 44.4708 16.0918C44.7954 16.2721 44.9396 16.6327 45.156 16.9122" fill="white"/>
<path d="M44.2547 16.5876C44.5883 18.0931 44.1015 19.5715 44.408 21.0951C43.5876 19.4724 41.8387 18.7151 40.6397 17.4169C39.9911 16.6507 39.5833 15.7098 39.4678 14.7124C40.1529 16.3712 42.01 16.7408 43.0738 18.1291C43.3659 18.4721 43.6031 18.8583 43.7769 19.274C43.2635 17.9118 42.8507 16.5137 42.5419 15.0911C42.3097 14.4617 41.8954 13.9157 41.3519 13.5225C42.0666 13.734 42.7121 14.132 43.2222 14.6753C43.7323 15.2187 44.0887 15.888 44.2547 16.6146" fill="white"/>
<path d="M40.5132 13.1168C41.4599 14.044 42.0908 15.2457 42.3162 16.5515L42.4875 16.9482C40.9382 15.829 39.6164 14.4245 38.593 12.8103L37.394 11.6023C38.502 11.924 39.5454 12.4365 40.4772 13.1168" fill="white"/>
<path d="M20.491 11.9449C22.5316 10.9427 24.7716 10.4128 27.0449 10.3943C29.7596 10.4046 32.4163 11.1808 34.7096 12.6335C37.0028 14.0864 38.8395 16.1569 40.0085 18.607C41.5399 21.7538 41.8607 25.3538 40.91 28.7218C40.2912 30.9221 39.1615 32.945 37.613 34.6261C36.0645 36.3071 34.1408 37.5987 31.9987 38.3956C29.8565 39.1925 27.5564 39.4724 25.2857 39.2122C23.015 38.952 20.8378 38.1592 18.9314 36.8984C16.84 35.482 15.1546 33.5438 14.0422 31.2759C12.9299 29.008 12.429 26.4889 12.5893 23.968C12.7496 21.447 13.5654 19.0116 14.9561 16.9028C16.3467 14.7941 18.2641 13.0851 20.5181 11.9449" fill="white"/>
<path d="M16.3354 11.8007C15.3524 12.7617 14.487 13.8361 13.7571 15.001C13.0074 15.787 12.203 16.5191 11.3501 17.1916C11.7828 16.2901 11.8008 15.2354 12.4139 14.415C13.3154 12.8915 14.902 12.3596 16.3354 11.8007Z" fill="white"/>
<path d="M10.5477 15.028C11.0269 14.409 11.6945 13.9628 12.4498 13.7568C11.0255 14.7395 11.1156 16.4613 10.6468 17.9488C10.5026 18.4897 10.2502 18.9855 10.124 19.5445H10.169C10.4288 18.8912 10.8253 18.301 11.332 17.8136C12.3507 16.9121 13.8471 16.2991 14.343 14.9198C14.343 16.84 12.7203 18.3455 11.1877 19.4273C10.5384 19.9528 9.99657 20.5986 9.59207 21.3294C9.59207 20.8426 9.6732 20.3558 9.63714 19.842C9.46586 18.1652 9.34866 16.236 10.5386 15.0009" fill="white"/>
<path d="M7.66287 20.7345C7.67122 19.1303 8.2605 17.5834 9.32166 16.3803C9.32166 16.3803 9.36673 16.3352 9.40279 16.3352C8.31195 18.003 9.21348 20.0945 9.1684 21.9876L9.01512 23.9619C9.01512 23.9619 9.01512 24.034 9.08727 24.007C9.14091 23.7874 9.18003 23.5645 9.20446 23.3399C9.4659 21.7803 10.8181 20.6354 12.0081 19.5896C12.2596 19.3259 12.4638 19.021 12.6121 18.6881C12.5058 19.4766 12.284 20.245 11.954 20.9689C11.0525 22.7719 9.32166 24.2414 9.01512 26.2968C8.87088 24.3405 7.52764 22.8621 7.66287 20.7345Z" fill="white"/>
<path d="M6.83318 23.1866C6.92827 22.6552 7.07936 22.1355 7.28393 21.636C6.84219 23.8807 8.35671 25.4944 8.85254 27.4507C8.99326 28.1909 9.17685 28.9224 9.40241 29.6413C9.40241 29.6413 9.4565 29.6413 9.47453 29.6413C8.73534 27.5679 9.79907 25.6477 10.8719 24.025C11.1208 23.5792 11.303 23.0992 11.4128 22.6006C11.4494 23.6022 11.3615 24.6045 11.1513 25.5846C10.8899 26.8196 10.5022 27.9916 10.1687 29.1906C9.98613 29.9655 9.96774 30.77 10.1146 31.5525L10.0064 31.4623C9.22211 29.9929 7.67157 28.848 7.21181 27.2794C6.76491 25.964 6.63517 24.5616 6.83318 23.1866Z" fill="white"/>
<path d="M6.76112 27.5769C6.93241 29.9569 9.46558 31.1829 10.6826 33.1843C10.9412 33.611 11.2432 34.0099 11.5841 34.3742C11.521 34.1218 11.2956 33.9055 11.2055 33.644C10.7884 32.769 10.626 31.7943 10.7367 30.8313C10.8539 29.6143 11.3587 28.4874 11.1694 27.2253C12.2152 29.4791 11.8996 32.2828 12.4766 34.7258C12.6728 35.2418 12.8955 35.7473 13.1437 36.2403C10.9981 34.7619 8.11337 33.3555 7.12172 30.6961C6.75972 29.6988 6.63624 28.6306 6.76112 27.5769Z" fill="white"/>
<path d="M8.0415 33.04C9.24046 35.7445 12.2334 35.9699 14.2438 37.6196C14.5923 37.9416 14.9874 38.2091 15.4157 38.413C14.9162 37.9933 14.4792 37.5046 14.1176 36.9616C12.9456 35.3298 13.3603 33.04 12.4768 31.2821C13.2827 32.1982 13.9591 33.2204 14.4872 34.3202C15.2084 36.1232 15.4788 38.0884 17.1466 39.4317C15.3436 38.8367 13.2341 39.008 11.6475 37.8991C10.7454 37.3798 9.95977 36.6804 9.33936 35.8444C8.71905 35.0085 8.27726 34.0539 8.0415 33.04Z" fill="white"/>
<path d="M11.1157 38.0884C13.0269 40.2701 16.1641 39.5398 18.7154 40.1078C19.0641 40.2065 19.4258 40.2521 19.7882 40.243C19.4816 40.0537 19.067 40.0717 18.7334 39.9004C16.7321 39.1883 16.4346 37.0247 15.3438 35.5732C16.7163 36.584 18.0009 37.7088 19.1841 38.9358C20.1039 39.6818 21.2051 40.1703 22.3755 40.3512C22.096 40.4504 21.7264 40.4233 21.4289 40.5044C19.3374 41.0183 17.0025 41.8657 14.7758 41.1085C13.2183 40.5998 11.9108 39.521 11.1157 38.0884Z" fill="white"/>
<path d="M37.1236 43.1638C34.969 43.9752 32.7153 43.1638 31.0295 41.8476C30.3443 41.4149 29.7403 40.7929 28.8568 40.847C28.5535 40.8299 28.2493 40.8604 27.9553 40.9371C29.6402 41.7242 31.1795 42.7911 32.5079 44.0924C32.2564 44.3649 31.982 44.6152 31.6876 44.8406C30.4139 43.3654 28.8876 42.1291 27.1801 41.1895C26.8601 41.2722 26.5557 41.4062 26.2786 41.5862C24.8397 42.4511 23.5716 43.5725 22.5373 44.8947L21.6358 44.1825C22.9562 42.831 24.507 41.7259 26.2154 40.9191C24.5747 40.4052 23.5109 41.8206 22.2579 42.4787C21.503 43.0235 20.6284 43.3791 19.7075 43.5156C18.7866 43.6521 17.8465 43.5654 16.9661 43.263C15.9751 42.9271 15.0957 42.3252 14.4238 41.5231C15.1662 41.9805 16.0054 42.2579 16.8742 42.333C17.743 42.4082 18.6172 42.279 19.4272 41.9558C21.5367 41.0543 23.7273 39.8824 26.2605 40.4413C26.6662 40.4413 27.0538 40.838 27.4235 40.5044C29.3289 40.053 31.3333 40.306 33.0668 41.2166L34.7527 41.8837C35.5539 42.1809 36.4134 42.2876 37.263 42.1953C38.1125 42.1029 38.929 41.8142 39.6478 41.3518C38.9692 42.1811 38.0734 42.8053 37.0605 43.1548" fill="white"/>
<path d="M39.4408 40.9371C37.0158 41.8386 34.5727 40.7298 32.2288 40.3512L31.7871 40.2971C32.9155 40.1163 33.976 39.6405 34.8612 38.9178C36.0597 37.6283 37.3655 36.4431 38.7647 35.3749C37.6919 36.7452 37.5838 38.7014 35.8078 39.5849C35.3403 39.8039 34.8584 39.9906 34.3654 40.1438C34.9958 40.0911 35.6222 39.9978 36.2405 39.8643C38.6205 39.4947 41.334 39.8643 43.0018 37.845C42.2439 39.3024 40.9518 40.4104 39.3958 40.9371" fill="white"/>
<path d="M40.7839 38.467C39.5488 38.8005 38.2236 38.9087 37.0156 39.3144C39.053 37.5655 38.9448 34.861 40.3061 32.8055C40.7005 32.1974 41.131 31.6134 41.5952 31.0566C40.7749 32.7154 41.1265 34.87 40.1799 36.4656C39.789 37.141 39.293 37.7496 38.7104 38.2686C38.9054 38.2211 39.0854 38.1249 39.2333 37.9892C40.7749 36.4476 42.7942 36.0149 44.462 34.7618C45.1473 34.2451 45.6902 33.5626 46.0396 32.7785C45.7241 35.3298 43.1819 37.7277 40.7839 38.494" fill="white"/>
<path d="M43.84 34.1127C42.8844 34.7347 41.9198 35.3207 40.9912 36.0329V35.9518C42.4066 33.5989 41.7124 30.3805 42.5869 27.8383L42.9114 26.9368C42.7311 28.5414 43.4253 29.9027 43.3802 31.5164C43.3221 32.4506 43.0105 33.3514 42.4787 34.1217H42.5688C43.1991 33.1844 43.8792 32.2816 44.6062 31.4172C45.8593 30.2092 47.1304 28.9742 47.3107 27.2974C47.7344 30.092 46.1658 32.5441 43.84 34.1307" fill="white"/>
<path d="M33.0128 33.9234L33.112 33.7882C33.569 33.4685 33.9974 33.1095 34.3922 32.7154H34.4462C34.3561 32.7154 34.248 32.7785 34.1488 32.7154C34.0651 32.6674 33.998 32.5952 33.9561 32.5084C33.9143 32.4215 33.8997 32.3239 33.9143 32.2286L33.0128 31.3271L32.9588 31.1919C32.8852 31.3515 32.7737 31.4907 32.6343 31.5976C32.6343 31.7148 32.6343 31.8861 32.7425 31.9672C33.0309 32.0573 33.4005 32.2467 33.4636 32.5892C33.3464 32.9047 32.7424 33.1932 33.112 33.5358C33.2382 33.7071 32.9497 33.7702 32.9948 33.9144" fill="#006EB5"/>
<path d="M27.8653 22.249C28.0366 22.3392 28.1269 22.1679 28.2711 22.1318C28.4616 22.1847 28.6295 22.2987 28.7488 22.4564C28.875 22.5105 29.0012 22.4564 29.1184 22.3933C29.1905 21.7983 29.9388 21.8794 30.1642 21.3205L30.029 21.3746C29.9659 21.2934 29.8306 21.3295 29.8306 21.1943C29.9551 21.0571 30.1013 20.9413 30.2633 20.8517C29.6323 20.4467 28.9418 20.1425 28.2169 19.9502C27.9129 19.9139 27.6117 19.8566 27.3154 19.7789C27.3773 20.2724 27.4104 20.769 27.4146 21.2664L27.9284 21.4377C28.0907 21.1943 28.4153 21.1402 28.5595 20.9058C28.6497 20.8247 28.7578 20.9058 28.8299 20.9869C28.8436 21.1828 28.8159 21.3794 28.7488 21.5639C28.5505 21.9515 28.0907 21.9966 27.8473 22.2851" fill="#006EB5"/>
<path d="M35.5374 27.0449C35.2643 28.0367 34.8319 28.9775 34.2572 29.8306C34.0627 30.1806 33.7989 30.4873 33.4819 30.7321L34.131 31.309C34.131 31.309 34.131 31.2189 34.131 31.1648C34.131 31.1107 34.131 30.9845 34.2753 30.9935C34.5908 30.9935 34.5998 31.3271 34.7801 31.4984C34.7801 31.7778 34.9874 31.9852 34.9063 32.2376C36.6599 30.3745 37.684 27.9424 37.7911 25.3862L37.8903 25.269C37.2412 25.3321 36.5561 25.269 35.8889 25.269L35.7808 25.2419C35.7836 25.6737 35.7505 26.1049 35.6816 26.5311L35.916 26.7925C35.9473 26.8442 35.959 26.9053 35.9491 26.9648C35.9392 27.0244 35.9082 27.0784 35.8619 27.1171C35.8157 27.1537 35.7586 27.1735 35.6996 27.1735C35.6408 27.1735 35.5835 27.1537 35.5374 27.1171" fill="#006EB5"/>
<path d="M33.8062 20.7345C33.5272 20.2773 33.2042 19.8486 32.8416 19.4543V19.5355C32.1745 20.2296 31.4533 20.9418 30.8223 21.645C30.8572 21.7353 30.9249 21.8093 31.0116 21.8523C31.0116 21.6811 31.1378 21.5278 31.1558 21.3565C31.3271 21.1131 31.5795 21.2664 31.8049 21.3114C32.1464 21.303 32.4878 21.3301 32.8236 21.3926C33.085 21.5188 33.1121 21.8523 33.3465 21.9785C33.3727 22.024 33.3798 22.078 33.3663 22.1286C33.3528 22.1794 33.3197 22.2227 33.2743 22.249C33.3465 22.7899 33.6079 22.1048 33.8784 22.249C33.9955 22.2941 34.1398 22.249 34.2209 22.3932C34.3021 22.5375 34.5364 22.5826 34.5545 22.7899C34.5725 22.9972 34.4193 22.9251 34.3381 22.9882C34.4102 23.2046 34.1218 23.3398 34.2209 23.5742C34.6356 23.6463 34.6536 23.1685 34.852 22.9522C34.7709 22.5706 34.6343 22.2032 34.4463 21.8614C34.2119 21.8614 34.0677 21.5368 33.8243 21.4827C33.3645 21.3024 33.8964 21.0139 33.8243 20.7435" fill="#006EB5"/>
<path d="M27.3875 35.7355C27.9584 35.6159 28.5366 35.5346 29.1184 35.4921C28.9935 35.4634 28.8803 35.3973 28.7938 35.3027C28.4603 35.3027 28.298 34.9331 28.1898 34.6627C28.0816 34.3922 28.2709 34.3111 28.3521 34.1488C28.2078 33.8513 27.7661 34.0677 27.5047 33.9595C27.4326 33.9054 27.3785 33.8153 27.2793 33.7972L27.3875 33.9595C27.4247 34.5599 27.4247 35.1621 27.3875 35.7625" fill="#006EB5"/>
<path d="M27.8471 30.1281C28.0364 30.1281 27.9012 30.3625 28.0364 30.4346C28.3339 30.3445 28.5593 30.687 28.7937 30.4346C28.7937 30.1011 29.1633 30.1281 29.3706 30.038C29.578 29.9478 30.0648 29.5872 30.0287 29.1365L29.9746 29.0734C29.7493 29.0734 29.6411 29.2446 29.4788 29.3799C29.3166 29.5151 29.1723 29.1635 29.001 29.2446C29.0075 29.2616 29.0185 29.2764 29.0328 29.2876C29.0471 29.2986 29.0641 29.3057 29.0822 29.3078C29.0822 29.3618 29.1362 29.47 29.0822 29.5151C28.8297 29.7405 28.7216 29.4069 28.4872 29.434V29.5151C28.4872 29.5692 28.4872 29.6503 28.406 29.6143C28.2528 29.3799 27.9643 29.47 27.8201 29.2627C27.7299 29.2086 27.6398 29.2627 27.5767 29.3348C27.5136 29.4069 27.2972 29.3348 27.3513 29.5061C27.171 29.5692 27.153 29.7585 27.0177 29.8757C26.7923 29.8757 26.6932 30.0921 26.4858 30.0921C26.4858 30.0921 26.4858 30.2002 26.5489 30.2093C26.6871 30.2506 26.8345 30.2506 26.9727 30.2093C27.189 29.8667 27.5406 30.1552 27.8742 30.029" fill="#006EB5"/>
<path d="M29.975 27.3154C29.9736 27.4397 30.015 27.5606 30.0922 27.658C30.3717 27.6129 30.2545 28.0005 30.5069 27.9735C30.7593 27.9464 30.5069 27.8022 30.561 27.7121C30.6151 27.6219 30.3086 27.4686 30.1643 27.3424C30.0201 27.2162 30.1643 27.2613 30.1643 27.2252C30.1643 27.1892 30.0021 27.2252 29.939 27.3154" fill="#006EB5"/>
<path d="M29.6504 17.381C28.8944 17.1488 28.119 16.9858 27.3335 16.8942L27.4056 17.0564V19.0037H27.5949C28.773 19.1307 29.8914 19.5869 30.8223 20.3199L30.8764 20.4731C31.2469 20.0256 31.6443 19.6012 32.0664 19.202L32.454 18.9316L32.2827 18.8594C31.5155 18.2117 30.6395 17.7051 29.6954 17.3629" fill="#006EB5"/>
<path d="M16.2269 25.4132L16.3802 26.7384C16.5116 27.2324 16.6051 27.7357 16.6597 28.2439C16.7318 28.1358 16.6597 27.9194 16.885 27.8924C16.8039 27.7391 17.0293 27.6039 16.885 27.4686C16.8987 27.1112 17.0431 26.7712 17.2907 26.5131C17.6603 26.5131 17.6874 26.0172 18.057 25.9992C18.2463 25.9992 18.3635 26.2426 18.4446 26.3237C18.3506 26.1616 18.2923 25.9811 18.2736 25.7946C18.255 25.608 18.2764 25.4195 18.3365 25.2419L18.1742 25.3141C17.5068 25.3399 16.8384 25.3249 16.1729 25.269L16.2269 25.4132Z" fill="#006EB5"/>
<path d="M29.1637 28.7849C29.335 28.6046 29.7046 28.6046 29.7136 28.3522C29.4612 28.3522 29.335 28.4513 29.1637 28.5866C29.1637 28.6407 29.0645 28.7398 29.1637 28.7849Z" fill="#006EB5"/>
<path d="M33.7432 25.1699L33.9595 25.3953C34.1849 25.5395 34.0407 25.8641 34.275 25.9993C34.5094 26.1345 34.6537 26.4681 34.7799 26.7115C34.805 26.6437 34.8261 26.5745 34.843 26.5041C34.9422 26.1075 34.9241 25.6567 35.0503 25.2691C34.6126 25.3327 34.1662 25.2988 33.7432 25.1699Z" fill="#006EB5"/>
<path d="M30.8402 30.2093C31.0836 30.2724 31.2549 30.5789 31.5614 30.4888C31.8679 30.3986 32.2466 30.5699 32.4629 30.2995C32.4629 30.029 32.6613 29.8397 32.7785 29.6053H32.8596C33.0038 29.7586 33.0038 29.9839 33.0669 30.1462C33.2653 29.9298 33.4275 29.6864 33.6078 29.4701C34.0836 28.7925 34.4261 28.0308 34.6175 27.2253C34.425 27.2356 34.2343 27.2689 34.0496 27.3245C33.8422 27.3245 33.5898 27.4327 33.4095 27.3245C33.2292 27.2163 33.3013 27.3245 33.3103 27.4147C33.3194 27.5048 33.1661 27.6581 32.9948 27.613C32.8235 27.5679 32.8686 27.4147 32.8235 27.3155C32.8372 27.39 32.8372 27.4664 32.8235 27.5409C32.6869 27.6632 32.5631 27.7991 32.4539 27.9465C32.3007 28.1088 32.0573 28.0547 31.904 28.1899C31.904 28.5325 31.4893 28.4604 31.273 28.5776C31.273 28.5776 31.273 28.6227 31.327 28.6587C31.3808 28.6796 31.4396 28.684 31.4959 28.6711C31.5521 28.6583 31.6032 28.6288 31.6426 28.5866C31.9401 28.6677 31.877 28.2891 32.0573 28.1539C32.2376 28.0187 32.3457 28.0006 32.499 28.1088C32.6495 28.3171 32.714 28.5754 32.6793 28.83C32.499 29.0013 32.5891 29.2808 32.4719 29.4881C32.4719 29.7225 32.2105 29.8307 32.2466 30.0741C32.1917 30.1192 32.1282 30.1527 32.0601 30.1728C31.992 30.193 31.9205 30.1992 31.8499 30.1913C31.2702 29.973 30.6637 29.8336 30.0469 29.7766C30.0193 29.7882 29.9964 29.8088 29.9817 29.8348C29.967 29.861 29.9615 29.8912 29.9658 29.9208C30.2272 30.056 30.5427 30.0651 30.8132 30.1732" fill="#006EB5"/>
<path d="M26.5493 36.5197L26.6214 36.4116L26.405 36.4657C23.6557 36.3378 21.0471 35.2129 19.0668 33.3014V33.3825L17.5884 34.879C19.731 36.8106 22.3971 38.0652 25.2511 38.485C25.7319 38.5138 26.2105 38.571 26.6845 38.6563L26.5763 38.485L26.5493 36.5197Z" fill="#006EB5"/>
<path d="M23.6465 28.7578C24.3919 29.3781 25.2873 29.7915 26.2428 29.9568C26.2969 29.7585 26.2428 29.5151 26.3149 29.3528C26.387 29.1906 26.5764 29.1996 26.7296 29.2266C26.7494 29.2224 26.7677 29.2135 26.7833 29.2007C26.7989 29.1879 26.8112 29.1715 26.8191 29.153C26.8271 29.1344 26.8304 29.1142 26.829 29.0941C26.8275 29.074 26.8213 29.0545 26.8107 29.0373C26.6034 29.0373 26.6936 28.7669 26.6214 28.6407C26.5493 28.5144 26.7567 28.5775 26.7296 28.4874C26.7026 28.3972 26.7927 28.244 26.6755 28.1178C26.6755 28.1178 26.7386 28.0547 26.7747 28.0276C26.342 28.2079 25.8732 27.9465 25.4855 27.7752C25.2962 27.667 25.0258 27.5589 24.9897 27.3245C24.5829 27.839 24.1336 28.3185 23.6465 28.7578Z" fill="#006EB5"/>
<path d="M22.9072 26.5131C22.8441 26.5131 22.835 26.5131 22.7719 26.5131C22.7088 26.5131 22.6908 26.5131 22.6638 26.5131C22.6638 26.0984 22.204 26.3418 22.0327 26.1255C22.2401 26.5041 22.3392 26.9278 22.5556 27.2974C22.7719 27.6671 22.9703 27.8924 23.0965 28.1989C23.2752 27.946 23.4774 27.7105 23.7005 27.4958C23.7174 27.3951 23.6948 27.2918 23.6374 27.2073C23.5743 27.054 23.6374 26.8467 23.5112 26.7115C23.3309 26.7836 23.5833 26.9639 23.5112 27.0721C23.4949 27.0809 23.4769 27.0858 23.4584 27.0863C23.44 27.0868 23.4217 27.083 23.4049 27.075C23.3882 27.0672 23.3736 27.0554 23.3623 27.0408C23.3511 27.0262 23.3433 27.009 23.3399 26.9909C23.2587 26.9709 23.1838 26.9306 23.1224 26.8738C23.061 26.8171 23.0148 26.7457 22.9883 26.6664C23.1325 26.5762 22.9883 26.5402 22.9162 26.4681" fill="#006EB5"/>
<path d="M24.3405 26.7205C24.2842 26.9001 24.1816 27.0618 24.043 27.1892C24.2233 27.063 24.3405 26.8467 24.5658 26.8286L24.3405 26.7205Z" fill="#006EB5"/>
<path d="M26.3777 33.7161C24.6894 33.6203 23.0703 33.0135 21.7349 31.9762C21.78 32.1475 22.0144 32.2557 21.9423 32.472C21.8702 32.6884 21.5727 32.6704 21.3743 32.6704C20.9596 32.5982 20.6531 32.9138 20.2745 32.9588C19.8959 33.0039 19.7967 32.6343 19.4722 32.6704C21.3848 34.4336 23.8447 35.4869 26.4408 35.6543L26.6391 35.7895L26.5489 35.5461V33.644L26.3777 33.7161Z" fill="#006EB5"/>
<path d="M18.607 32.7785C18.3603 32.5752 18.1366 32.3454 17.9399 32.0934C17.686 32.0254 17.469 31.8602 17.3359 31.6336C17.2638 31.5525 17.3359 31.4082 17.2457 31.3541L17.1285 31.4623C16.8761 31.5795 16.786 31.3181 16.6057 31.2099C16.4254 31.1017 16.4975 30.669 16.191 30.7411C16.0738 30.7411 16.0377 30.6059 15.9656 30.5428C15.6861 30.5428 15.614 30.2543 15.4608 30.1101C15.4608 30.1732 15.4608 30.2543 15.3796 30.2994C15.0912 30.3625 14.992 30.0109 14.7937 29.8667C14.7396 29.8667 14.7035 29.9478 14.6314 29.9298C14.4613 29.7729 14.3581 29.5566 14.3429 29.3258C14.0995 29.0643 14.2077 28.6406 14.2528 28.3161C14.2978 28.2259 14.424 28.1809 14.397 28.0727C14.37 27.9645 14.6224 27.9014 14.7756 27.8924C14.8343 27.9285 14.8837 27.9779 14.9199 28.0366C15.01 27.9735 15.2174 28.0366 15.1362 27.8293C15.2746 27.7316 15.4363 27.6726 15.605 27.658C15.6991 27.8151 15.8078 27.963 15.9296 28.0997L15.8664 27.9465C15.6817 27.229 15.567 26.4954 15.5239 25.7558C15.5239 25.7558 15.4337 25.6927 15.5239 25.6567C15.5131 25.5216 15.5131 25.386 15.5239 25.251L15.3255 25.3231H13.3242C13.4437 27.5353 14.0599 29.6922 15.1272 31.6336C15.7031 32.5768 16.3416 33.4803 17.0384 34.3381L18.4718 32.8506L18.607 32.7785Z" fill="#006EB5"/>
<path d="M20.9146 15.9835C20.4638 16.2901 20.0581 16.6957 19.5894 16.9662C20.1124 17.3728 20.6009 17.8221 21.0498 18.3094V18.4446C22.2608 17.3014 23.7757 16.5314 25.413 16.227C25.7849 16.1395 26.1679 16.109 26.5489 16.1368C26.4994 15.4465 26.4994 14.7536 26.5489 14.0634C24.5399 14.1672 22.5978 14.8188 20.9326 15.9475" fill="#006EB5"/>
<path d="M19.2018 23.4931C19.1739 23.8554 19.1136 24.2144 19.0215 24.5659C19.3171 24.4896 19.6273 24.4896 19.923 24.5659C19.7607 24.4758 19.923 24.2684 19.8058 24.1512C19.6886 24.034 19.7517 23.7546 19.923 23.6374C19.923 23.3399 20.2205 23.1866 20.2475 22.9252C20.2746 22.6637 20.6712 22.826 20.8425 22.6637C21.0138 22.5015 20.8425 22.5105 20.8425 22.4294C20.9868 22.231 21.2121 22.24 21.3834 22.1319C21.5036 21.9305 21.6668 21.7581 21.8612 21.627C22.3029 21.627 22.3029 21.041 22.7176 21.023C22.1559 20.5633 21.623 20.0696 21.122 19.5446C20.1346 20.6767 19.4684 22.0525 19.1928 23.5292" fill="#006EB5"/>
<path d="M19.4724 26.4139C19.4724 26.2787 19.3011 26.2516 19.3192 26.1164C19.3372 25.9812 19.3192 25.4222 19.6798 25.305C19.5679 25.3448 19.4486 25.3597 19.3303 25.3488C19.212 25.3379 19.0975 25.3014 18.9946 25.2419L19.0938 25.4132C19.1884 25.8787 19.2247 26.3541 19.202 26.8286C19.2831 26.6843 19.3011 26.504 19.4724 26.4139Z" fill="#006EB5"/>
<path d="M21.4558 31.6066L21.4287 31.5615L21.4558 31.6427V31.6066Z" fill="#006EB5"/>
<path d="M19.0668 17.5702L18.2825 18.5619C17.0526 20.3197 16.3405 22.3874 16.2271 24.5298H18.2013L18.3816 24.6019C18.3095 24.5478 18.3275 24.4667 18.3005 24.3946C18.4114 22.3801 19.2211 20.4674 20.5903 18.9856C20.0479 18.5198 19.5416 18.0135 19.0758 17.4711L19.0668 17.5702Z" fill="#006EB5"/>
<path d="M25.1431 31.0296C25.2887 30.8663 25.4755 30.7449 25.684 30.6781C25.0439 30.8043 24.476 30.3445 23.9351 30.0921C23.5827 29.9049 23.2751 29.6435 23.0336 29.3258C22.6184 29.8615 22.1503 30.3538 21.6362 30.7953C21.8616 30.7953 21.9788 31.0567 22.1681 31.1649C23.2533 31.9846 24.5113 32.5458 25.8462 32.8056L25.5037 32.6433C25.2422 32.3548 24.8726 32.0033 24.8636 31.5976C25.116 31.5074 25.089 31.219 25.1791 31.0296" fill="#006EB5"/>
<path d="M20.2206 25.3051L20.1575 25.6838C20.0763 25.9091 19.7969 25.7469 19.6707 25.9001C19.5445 26.0534 19.6707 26.1886 19.7518 26.3058C19.5535 26.7656 20.2026 26.9098 20.1935 27.3245C20.4009 27.5859 20.1935 27.9646 20.455 28.226C20.5181 28.6948 20.3919 29.3258 20.8066 29.6954L20.8787 30.1462C20.9598 30.4527 20.5091 30.3716 20.5632 30.642C20.6533 30.642 20.6713 30.7141 20.6803 30.7412C21.2574 30.0702 21.8777 29.4378 22.5374 28.848L22.267 28.5686C21.7408 27.8282 21.364 26.9922 21.1581 26.1075L20.9508 25.9993C20.9039 26.2102 20.8708 26.4241 20.8516 26.6394L20.7344 26.6844C20.5812 26.6844 20.482 26.5582 20.3558 26.4771C20.2296 26.396 20.2476 26.2697 20.3558 26.2066C20.4164 26.202 20.4767 26.2179 20.5271 26.2517C20.5902 26.1796 20.5271 26.0624 20.5992 25.9632C20.6713 25.8641 20.464 25.6297 20.5992 25.4764C20.7435 25.4764 20.8426 25.6297 20.8967 25.7198C20.9508 25.81 21.1401 25.6567 21.2573 25.6026C21.3745 25.5485 21.4286 25.3142 21.2573 25.242C21.3342 24.9648 21.3342 24.6718 21.2573 24.3946C21.1762 24.1602 20.9147 24.1963 20.7164 24.2143C20.1304 24.4036 20.8156 24.8454 20.6713 25.206C20.5812 25.4133 20.3738 25.206 20.2206 25.3051Z" fill="#006EB5"/>
<path d="M38.6562 25.242L38.539 25.1519L38.6111 25.3502C38.5048 27.6605 37.7106 29.8863 36.3303 31.7418C36.0893 32.0788 35.8043 32.382 35.4829 32.6433C36.0585 33.1391 36.595 33.6786 37.0876 34.257L37.1417 34.1488C39.34 31.7342 40.6168 28.622 40.7477 25.3592L40.8378 25.1879L40.7296 25.242H38.6562Z" fill="#006EB5"/>
<path d="M19.166 16.4614V16.3622C21.1634 14.4812 23.772 13.3834 26.5133 13.2701L26.4502 13.0988V11.3679L26.5043 11.1696C23.7127 11.2729 21.0172 12.2154 18.7694 13.8741C18.3277 14.1716 17.94 14.6313 17.4893 14.8928H17.5524C18.1275 15.3566 18.6614 15.8693 19.148 16.4253" fill="#006EB5"/>
<path d="M26.4502 16.9482C24.67 17.0994 22.9842 17.8129 21.6362 18.9856C22.175 19.4327 22.6867 19.9113 23.1688 20.419C23.209 20.3678 23.2451 20.3135 23.277 20.2567C23.9297 19.7466 24.6729 19.3642 25.4676 19.1298C25.8211 19.0246 26.1902 18.982 26.5584 19.0036C26.4773 18.2968 26.4773 17.583 26.5584 16.8761L26.4502 16.9482Z" fill="#006EB5"/>
<path d="M26.5491 19.833C25.387 19.9361 24.3 20.4508 23.4839 21.2844H23.6371C23.8084 21.4557 24.088 21.4196 24.2232 21.654C24.3584 21.8884 24.0969 21.7622 24.1059 21.8704C24.1149 21.9786 24.1962 21.8704 24.2232 21.9605C24.2503 22.0507 24.3314 21.8794 24.3765 21.8253C24.4215 21.7712 24.5837 21.9966 24.764 21.9966C24.792 21.9741 24.8242 21.9576 24.8589 21.948C24.8935 21.9386 24.9296 21.9362 24.9651 21.9413C25.0007 21.9464 25.0347 21.9587 25.0653 21.9775C25.0959 21.9963 25.1222 22.0212 25.1426 22.0507C25.2598 21.9425 25.5032 22.0507 25.5393 21.8524C25.7647 21.618 25.6385 21.2484 25.972 21.0951C26.0802 21.1582 25.972 21.2664 25.972 21.3746C26.1884 21.4647 26.4409 21.1853 26.6212 21.3746C26.51 20.8686 26.4855 20.3472 26.5491 19.833Z" fill="#006EB5"/>
<path d="M26.6212 23.0244C26.5159 23.1713 26.3814 23.295 26.2264 23.388C26.0714 23.4811 25.899 23.5414 25.7197 23.5653C25.6296 23.6824 25.6476 23.9349 25.4222 23.9078C25.3501 24.0701 25.1067 24.1602 25.2059 24.3946C25.1355 24.6661 25.0932 24.944 25.0797 25.224C24.656 25.4854 24.7732 24.8634 24.5658 24.7372L24.4847 24.8634C24.4035 24.8634 24.3495 24.8634 24.2864 24.7733C24.2232 24.6831 24.1151 24.7282 24.061 24.7733C24.0069 24.8183 23.8176 25.0617 23.8536 25.2781C23.8897 25.4945 23.6012 25.3592 23.6283 25.4945C23.8717 25.4887 24.1135 25.4554 24.3495 25.3953C24.5207 25.3953 24.656 25.3142 24.8182 25.3142C24.8535 25.3247 24.8834 25.3483 24.9018 25.3802C24.9203 25.412 24.9259 25.4497 24.9174 25.4854H24.9805C25.0341 25.4464 25.0737 25.3911 25.0932 25.3277C25.1127 25.2643 25.1111 25.1963 25.0887 25.1339C25.0887 24.9896 25.278 24.9896 25.3772 24.9445C25.4763 24.8995 25.3772 25.0798 25.4222 25.1519C25.7468 25.2781 25.3501 25.5125 25.305 25.6838C25.26 25.8551 25.305 26.1255 25.0256 26.0895C25.0017 26.0794 24.9822 26.0612 24.9706 26.0381C24.9591 26.0149 24.9562 25.9884 24.9625 25.9632H24.9174C24.9197 26.0299 24.9393 26.0947 24.974 26.1516C25.0087 26.2084 25.0576 26.2553 25.1157 26.2878C25.3141 26.1255 25.3231 25.837 25.6116 25.801C25.9 25.7649 25.5485 25.4043 25.7738 25.2781C26.1434 25.2781 26.5401 25.1068 26.8466 25.4043C26.8466 25.5395 26.7745 25.6026 26.8466 25.7018C26.7886 25.8781 26.7001 26.0429 26.5852 26.1886C26.6028 26.2364 26.6046 26.2887 26.5899 26.3375C26.5753 26.3862 26.5452 26.429 26.504 26.4591C26.4139 26.9008 25.9091 26.6935 25.6025 26.8377C26.0573 27.1783 26.6246 27.333 27.1892 27.2704C27.5047 27.2704 27.3605 26.8738 27.5227 26.7025C27.6219 26.2066 28.0907 26.5492 28.3701 26.414C28.4841 26.2027 28.5632 25.9744 28.6045 25.7379C28.5216 25.6799 28.4589 25.5975 28.4249 25.5022C28.391 25.4068 28.3875 25.3033 28.4152 25.206C28.298 25.0347 28.307 24.7372 28.0366 24.7011C28.0366 24.6471 28.0366 24.5749 28.0366 24.5299C28.0366 24.4848 28.1808 24.3225 28.2259 24.1963C28.0636 24.0971 28.1087 23.8537 28.1177 23.7185C27.8383 23.7996 27.8112 23.43 27.6039 23.3489C27.5498 23.1866 27.3695 23.1596 27.2252 23.1325C26.8827 23.2948 26.8286 22.8711 26.5671 22.7719C26.5671 22.6908 26.477 22.5736 26.5671 22.5105C26.6573 22.4474 26.8646 22.5105 27.0179 22.5105L26.9007 22.4474C26.7835 22.3212 26.5311 22.4023 26.3778 22.4474C26.5221 22.5916 26.459 22.8531 26.5491 23.0334" fill="#006EB5"/>
<path d="M15.5327 24.5479L15.4876 24.2684C15.604 22.0497 16.3515 19.9105 17.6422 18.1022C17.9172 17.6972 18.2412 17.3278 18.6068 17.0023C18.138 16.5606 17.6512 16.0557 17.1644 15.5689L17.1283 15.3706C15.1101 17.5427 13.821 20.2911 13.4412 23.2317C13.3601 23.6644 13.4412 24.1332 13.333 24.5479C14.0712 24.4938 14.8125 24.4938 15.5507 24.5479" fill="#006EB5"/>
<path d="M35.0054 33.1482C34.7305 33.5047 34.3948 33.81 34.0137 34.0497C33.5449 34.5185 32.7877 34.6176 32.5443 35.3028C32.2919 35.5282 32.2107 35.8888 31.8591 36.015C31.7239 36.3665 31.3543 36.3395 31.147 36.5919C30.5429 37.1328 30.1553 36.2494 29.6144 36.1412L28.5056 36.3395C28.1356 36.4026 27.7577 36.4026 27.3877 36.3395C27.4418 37.0928 27.4418 37.849 27.3877 38.6023L27.5229 38.5121C30.8856 38.3681 34.0848 37.0212 36.5379 34.7168L35.0324 33.3555L35.0054 33.1482Z" fill="#006EB5"/>
<path d="M27.3517 13.0808C27.3537 13.0184 27.3759 12.9583 27.4148 12.9095C27.514 12.8464 27.6041 12.9095 27.6402 13.0086C27.6763 13.1078 27.6943 13.2791 27.6402 13.3422C27.7213 13.3422 27.7664 13.2881 27.8475 13.2881C29.4328 13.4127 30.9715 13.8836 32.355 14.6674C32.6345 14.5232 32.9951 14.3429 33.2565 14.5863C33.6081 14.4601 33.6712 14.8838 33.9507 14.9379C34.1402 15.0365 34.3065 15.1743 34.4387 15.3422C34.5707 15.51 34.6657 15.7041 34.717 15.9115C34.7801 16.0377 34.9784 16.1278 35.0055 16.2631C35.3053 15.7938 35.6728 15.3716 36.0963 15.01L36.3397 14.9018C34.2472 12.9118 31.5702 11.6476 28.704 11.2958C28.2352 11.267 27.7686 11.2099 27.3066 11.1245C27.3702 11.7841 27.3702 12.4483 27.3066 13.1078" fill="#006EB5"/>
<path d="M27.3517 16.1729C27.6264 16.128 27.9065 16.128 28.1811 16.1729C29.5804 16.3609 30.9102 16.8972 32.0485 17.7325C31.8883 17.5948 31.7723 17.4129 31.7149 17.2096C31.7286 17.2017 31.7442 17.1975 31.76 17.1975C31.7759 17.1975 31.7914 17.2017 31.8051 17.2096C31.8051 16.9842 31.5797 16.876 31.5437 16.6687C31.5626 16.6446 31.5876 16.6261 31.6162 16.615C31.6447 16.6039 31.6757 16.6006 31.7059 16.6056C31.9386 16.8321 32.1498 17.0795 32.337 17.3448C32.4992 17.2817 32.6255 17.3448 32.7426 17.471C32.8598 17.5972 32.8238 17.8587 32.977 18.0029C32.977 18.4266 33.527 18.661 33.4999 19.0847C33.4999 19.1929 33.6261 19.0847 33.6712 19.1568L34.1039 19.6887C34.0879 19.7126 34.077 19.7396 34.0718 19.7679C34.0668 19.7963 34.0677 19.8254 34.0744 19.8533C34.0812 19.8814 34.0937 19.9076 34.1112 19.9305C34.1287 19.9533 34.1508 19.9723 34.176 19.9862C34.3653 20.0764 34.4735 19.833 34.6719 19.869C34.8702 19.9051 34.6268 20.2116 34.6719 20.3829C34.78 20.3829 34.9153 20.3017 35.0054 20.3829C35.0956 20.464 34.8702 20.6353 34.8071 20.7435C34.744 20.8517 34.9423 20.8607 35.0505 20.8967C35.0813 20.8979 35.1114 20.9063 35.1384 20.9211C35.1654 20.936 35.1886 20.957 35.2061 20.9823C35.2236 21.0077 35.2349 21.0367 35.2393 21.0673C35.2435 21.0979 35.2406 21.129 35.2308 21.1582C35.5914 21.5278 35.1226 21.9335 35.2939 22.3301C35.3306 22.4534 35.3323 22.5843 35.2989 22.7085C35.2654 22.8327 35.1982 22.9451 35.1046 23.0333C35.1046 23.3488 34.8251 23.5471 34.7079 23.8086L34.3383 23.8807C34.149 24.079 34.5096 24.3134 34.3383 24.4396H35.1497L35.0595 24.3585C35.0028 24.196 34.9822 24.023 34.9994 23.8517C35.0165 23.6804 35.0709 23.5149 35.1587 23.3668C35.2849 23.1144 35.3119 22.7989 35.5373 22.5825C35.5914 22.5825 35.6815 22.4744 35.7266 22.5825C35.752 22.8349 35.7116 23.0895 35.6094 23.3218C35.7885 23.6849 35.8634 24.0906 35.8258 24.4937C36.538 24.4486 37.2411 24.4396 37.9353 24.4396L37.8632 24.3405C37.7991 23.0538 37.4933 21.7907 36.9617 20.6173C36.8084 20.6173 36.7002 20.7435 36.5289 20.6984C36.5004 20.6881 36.4764 20.6679 36.4614 20.6414C36.4466 20.6149 36.4417 20.5839 36.4478 20.5542C36.2011 20.2386 35.9361 19.9375 35.6545 19.6527C35.2849 19.6527 35.1226 19.265 34.753 19.2199C34.3834 19.1749 34.6628 18.625 34.2391 18.7512C34.1283 18.7169 34.028 18.6552 33.9476 18.5716C33.8672 18.488 33.8093 18.3854 33.7794 18.2734C33.7985 18.0791 33.7699 17.8831 33.696 17.7025C33.6222 17.5218 33.5053 17.3619 33.3557 17.2366C33.0942 17.1465 32.9861 17.4891 32.7246 17.435C32.4632 17.3809 32.6525 17.1735 32.6074 17.0563C32.5623 16.9392 32.4361 16.867 32.4542 16.7228C32.7877 16.272 32.0485 16.2811 32.2108 15.8213C32.2108 15.5058 31.8411 15.3886 31.6789 15.1362C30.5746 14.6243 29.3977 14.2867 28.1901 14.1355C27.8843 14.1507 27.5784 14.1078 27.2886 14.0093L27.3607 14.1445C27.3607 14.8206 27.3607 15.5328 27.3607 16.1548" fill="#006EB5"/>
<path d="M35.2217 16.9121C35.3749 16.9121 35.42 17.1284 35.5192 17.2366C36.042 17.5161 36.1773 18.084 36.637 18.3996C36.8985 18.9405 37.5385 19.3551 37.5385 19.9772C38.1988 21.3761 38.5698 22.8939 38.6293 24.4396L38.5753 24.5298C38.6375 24.5266 38.6972 24.5046 38.7465 24.4666H40.82C40.6848 24.2593 40.7389 23.9708 40.7028 23.7274C40.4017 20.5824 39.0633 17.6267 36.8985 15.3254C36.4522 15.8678 35.9736 16.3825 35.4651 16.867L35.2217 16.9121Z" fill="#006EB5"/>
<path d="M27.6401 12.7382C27.7032 12.621 27.8655 12.666 27.9557 12.7382L28.9924 12.2874C29.2001 12.2762 29.4079 12.309 29.6021 12.3835C29.7963 12.4581 29.9725 12.5728 30.1193 12.7201V12.7742C30.0056 12.8932 29.8614 12.9789 29.7025 13.0218C29.5436 13.0647 29.376 13.0632 29.2178 13.0176C28.74 13.1078 28.0729 13.3782 27.6942 12.8914C27.6942 12.8914 27.6401 12.8103 27.6942 12.7742" fill="white"/>
<path d="M33.8244 14.0454C33.8965 14.0573 33.9642 14.0877 34.0211 14.1335C34.0779 14.1793 34.122 14.2391 34.149 14.3069C34.149 14.4691 34.3022 14.6044 34.149 14.7306C33.7613 14.8387 33.7253 14.397 33.4278 14.2888C33.4051 14.2598 33.3886 14.2264 33.3794 14.1907C33.3701 14.1551 33.3682 14.1179 33.3737 14.0815C33.5089 13.9192 33.6351 14.1897 33.7884 14.0815" fill="white"/>
</g>
</g>
</g>
<defs>
<clipPath id="clip0_151_5194">
<rect width="54.09" height="110" fill="white"/>
</clipPath>
<clipPath id="clip1_151_5194">
<rect width="54.09" height="110" fill="white"/>
</clipPath>
<clipPath id="clip2_151_5194">
<rect width="54.09" height="109.983" fill="white"/>
</clipPath>
</defs>
</svg>
